<?xml version="1.0" encoding="UTF-8"?><svg id="a" xmlns="http://www.w3.org/2000/svg" viewBox="0 0 4095.07 928.84"><defs><style>.b{fill:#000100;}</style></defs><rect class="b" x="2417.25" y="210.24" width="211.53" height="718.57"/><polygon class="b" points="3854.52 928.83 3770.39 750.51 3674.99 543.2 3628.34 433.09 3632.02 526.52 3634.4 669.07 3634.66 928.81 3441.64 928.62 3441.7 210.25 3693.91 210.22 3788.46 408.81 3869.81 583.22 3911.4 681.12 3905.45 556.39 3903.26 470.72 3902.99 210.24 4095.07 210.31 4095.04 928.62 3854.52 928.83"/><polygon class="b" points="3307.81 638.23 2980.6 638.19 2980.31 772.54 3345.82 772.5 3322.54 928.78 2777.65 928.67 2777.59 210.43 3321.7 210.2 3321.77 366.47 2980.39 366.42 2980.32 481.93 3307.79 481.9 3307.81 638.23"/><rect class="b" x="2861.6" width="155.25" height="147.31"/><rect class="b" x="3085.77" width="155.15" height="147.28"/><path class="b" d="M600.15,353.62l-43.56,207.08-87.21,368.14-168.93-.14-70.59-340.34-45.62-234.8c-2.1-1.8-4.06-1.81-6.17-.44,5.98,94.04,8.04,187.58,9.35,282.23l.24,293.35H0S.06,210.48.06,210.48l303.4-.3c24.05,100.63,45.13,200.13,64.41,301.28l30.2,163.37,33.92-161.46,75.98-303.19,294.94.31.04,718.18-202.83.1.16-271.85,5.33-301.22c-.11-2.23-.69-2.78-1.25-3.18-.53-.38-3.76-.96-4.2,1.09Z"/><path d="M2288.65,862.4c.33,23.01,3.06,44.09,7.49,66.34h-200.53c-16.29-43.91-15.31-118.58-15.24-166.73.06-39.46-.97-79.77-43.69-95.53-17.13-6.39-35.06-8.8-53.66-8.82l-84.47-.1v271.04s-204.69.08-204.69.08l.1-718.4,368.71.19c30.93.02,59.66,5.12,88.92,12.7,25.62,7.6,48.84,17.72,70.72,32.79,68.26,47.02,92.01,127.08,72.92,206.04-12.91,53.37-49.04,95.56-100.95,117.54,48.71,18.94,73.22,59.47,84.95,108.65,5.71,24.48,7.6,48.59,7.97,73.89l1.46,100.32ZM2089.61,414.03c-4.28-22.11-18.59-39.06-39.28-47.62-15.49-6.4-31.7-9.17-49-9.19l-102.77-.12v153.24s107.26-.16,107.26-.16c16.49-.02,31.84-3.19,46.58-9.27,35.06-14.34,43.75-53.13,37.21-86.88Z"/><path d="M1354.7,789.1l-225.33-.17-41.77,139.84-205.38-.15,227.19-718.44,272.89.1,236.09,718.32-220.14.24-43.55-139.73ZM1317.53,632.77l-38.78-133.7-40.04-150.86-31.31,125.12-43.26,159.57,153.39-.13Z"/></svg>