<?xml version="1.0" encoding="UTF-8"?><svg id="a" xmlns="http://www.w3.org/2000/svg" viewBox="0 0 1562.42 1563"><defs><style>.b{fill:#e2b8a6;}.c{fill:#020202;}.d{fill:#0d679c;}.e{fill:#fbfbfb;}.f{fill:#e96348;}.g{fill:#ef9277;}.h{fill:#e02721;}.i{fill:#fefefe;}.j{fill:#000603;}.k{fill:#f7f7f7;}</style></defs><path class="i" d="M814.4,0c.12,1.4,2.59,1.92,4.3,1.7,9.2-1.16,16.52.47,25.64,1.19,195.5,15.35,377.62,104.89,510.58,248.52,284.89,307.76,275.37,787.06-22.1,1083.38-130.43,129.93-302.71,210.59-486.89,225.42-6.91.56-11.99,1.29-18.04,1.29h-91.49c-7.07,0-13.11-.58-21.04-1.22C342.61,1529.97,41.59,1235.9,3.05,864.18c-.58-5.61-.02-10.12-3.05-13.68v-138c2.72-3.09,2.46-7.09,2.97-12.16,16.79-166.8,88.23-323.4,200.81-446.31C345.72,99.05,539.47,11.03,746.9,0h67.49ZM221.92,991.46l-17.4-41.38c-13.75,36.06-29.25,69.07-48.09,101.91-8.11,14.14-15.08,27.9-25.67,40.14-10.91,12.6,1.08,24.23,8.74,38.67,6.21-11.35,11.49-22.42,19.75-31.17.53.22.99.57,1.37,1-.34,9.25-18.31,35.01-14.18,42.9,10.57,20.16,22.75,38.71,35.67,57.38,1.8,2.6,3.65,4.56,6.34,4.89-.34,3.59,2.13,6.59,4.62,10.08,35.85,49.96,78.46,93.7,125.95,133.07,50.98,42.25,107.07,75.36,166.77,103.36,32.61,15.29,33.66-4.9,64.59-7.79,37.2-3.48,71.2-14.8,104.01-32.13,23.07-12.19,45.61-22.4,68-35.84,22.63-13.59,42.36-29.53,64.41-43.82l44.46-28.82c17.12-11.1,28.6-28.63,28.31-50.08-.44-33.19-5.16-66.17-14.9-97.67-3.95-12.78-2.59-23.34,6.38-33.45,18.42-20.75,34.38-43.3,50.95-65.68,3.8-5.13,7.99-9.03,13.39-12.36,9.64-5.96,18.68-12.69,28.69-18.08,5.86-3.16,11.76,2.31,13.5,6.85,2.33,6.09-.32,10.91-5.73,14.79-25.04,17.97-46.57,59.26-34.48,55.98,1.15-.31,3.61-.18,5.05-1.59l35.69-34.82c9.75-9.51,21.15-16.69,33.77-21.58,8.98-3.48,17.98-.55,23.21,7.24,2.39,3.56,2.04,7.56-1.44,10.32l-41.57,32.87c-5.45,4.31-26.1,20.61-17.75,27.1,4.45,3.47,16.87-6.3,22.36-10.41l53.26-39.83c15.14-11.32,34.17,15.71,34.72,30.01-21.39,15.11-41.07,30.55-59.64,48.65-1.67,1.63-3.75,5.97-1.92,7.75,3.93,3.8,10.56,2.13,14.48-1.2,15.96-13.55,34.26-22.56,51.28-34.33,9.19-6.35,18.13-8.98,27.23-.41,4.54,4.27,8.27,9.04,8.22,15.35s-1.65,12.49-7.12,16.58l-17.13,12.83c-13.75,10.3-22.55,25.68-24.27,43.2-4.71,47.78,18.75,38.99-35.27,102.68-6.58,7.76-14.72,13.1-24.45,16.03l-30.12,9.07c-2.92.88-4.75,2.28-4.42,5,.27,2.2,1.51,4.69,4.59,4.89l18.8,1.17c-.15,2.58-1.93,4.89-4.21,6.89l-43.05,37.63c-25.05,21.9-36.93,40.31-62.15,57.7-1.39.96-1.24,3.23-.84,4.19.25.59,1.36,1.16,2.76,1.15l58.32-.41c1.94-.01,4.02.09,5.96.08l17.92-.09c5.5-.03,11.01.65,16.5-.19,1.51-.23,3.15.23,4.68.11,2.56-.19,7.31,1.85,9.99-.46,8.15-7.02,16.03-13.62,24.8-19.94,2.47-1.78,4.24-3.97,4.46-6.51,1.52-.37,2.59-2.63,4.22-2.87,5.69-.86,12.33-11.4,23.64-16.11,26.17-10.92,50.2-26.67,77.17-35.48,14.18-4.63,29.14-3.71,39.11-17.48,15.67-21.64,3.25-36.56,13.9-57.94,1.37-2.76,4.81-3.26,6.78-2.72,2.98.8,4.06,3.45,3.96,6.72l-.77,25.5c-.88,29.17-11,54.48-29.64,78,13.78-5.16,24.36-12.8,33.8-21.15,3.08-2.31,9.22-3.16,10.74-7.61,8.7-2.71,15.62-10.85,23.56-16.28,3.29-2.25,6.56-4.44,8.01-7.32,5.04-1.94,31.1-21.2,30.01-26.87,8.06-1.34-5.11-13.6,10.63-25.47,7.48-5.65,16.02-10.91,21.89-18.34,7.35-9.29,16.13-15.8,25-23.32,5.12-4.34,8.35-7.04,15.21-9.16,10.16-3.15,18.57-13.51,21.68-22.95,4.98.11,27.98-35.27,33.15-42.63,6.52-9.29,18.04-26.87,21.94-36.89,1.06-2.73,3.93-7.95,5.93-10.04,2.93-3.06,5.99-9.27,8.08-13.64l16.02-33.41c5.16-10.76,8.45-21.24,13.58-31.49,13.13-26.25,22.24-55.06,29.89-83.76.66-2.46.81-5.37,1.6-7.72,3.49-10.32,6.28-20.91,7.51-31.72.46-4.04.93-6.55-3.4-10.08-4.93-4.02-9.85-9.11-14.49-13.86l-25.9-26.53c-3.77-3.86-5.36-9.61-8.58-14.02-6.96-9.55-11.4-20.23-12.89-32.2-8.42-67.7,36.26-84.02,25.47-92.51-4.75-3.74-10.56.16-15.09,2.45-14.49,7.34-28.24,14.85-39.17,26.74-2.61,2.84-5.01,5.16-4.9,8.67-2.16,1.57-4.77,2.13-7.16,5.05-14.31,17.47-21.63,40.94-16.66,62.64.3,1.31.57,2.72.61,4.06.21,7.12-3.17,11.99-9.62,15.63-3.68,2.07-.78,8.44-.4,11.68,1.79,15.56-1.55,29.93-4.3,45.04-1.22,6.72-4.23,30.73-11.58,32.94-1.97.59-6.44.76-7.15-2.05-9.42-36.98-7.1-62.46-.54-99.85,1.39-7.92,2.28-15.53.22-22.58,5.37-5.35,12.39-10.46,18.95-15.29,27.5-20.26,31.06-51.34,30.27-83.84-1.13-46.27-.81-91.41-.3-137.76l.65-58.66c.25-22.84,1.99-44.6-.21-67.52-1.31-13.69-3.67-26.75-4.22-40.44-.92-22.94-5.48-44.58-14.53-65.28-3.44-7.86-9.78-7.82-15.69-11.9-47.44-32.73-55.94-8.95-67.58-37.61-4.72-11.63-12.91-21.63-19.97-31.79-4.79-6.89-12.31-10.94-20.03-12.99-27.58-7.3-21.06-22.22-40.14-16.32-31.7,9.79-32.44-17.03-52.11-7.45-13.13,6.4-22.73-7.06-41.96-4.25-11.89,1.74-3.25-19.86-15.85-26.05-18.32-8.99-36.88-15.69-55.84-23.52-37.84-15.63-76.57-21.97-117.21-25.15-21.92-1.71-42.71-2.49-62.48,8.2-25.94,14.02-10.63,30.12-24.57,51.28l-44.51-50.95c-10.65-12.19-23.74,2.76-29.62,1.09,2.14-6.96,17.09-8.98,13.46-16.02-5.45-10.56-39.23,14.78-47.53,11.84-.02-1.55,1.62-2.93,3.16-3.95l18.09-12.02c2.06-1.37,2.67-3.58,1.42-5.21-4.32-5.67-59.44,25.78-71.74,25.65,10.74-14.26,66.39-42.85,67.44-51.54.97-8.02-17.17-23.82-26.11-27.08-6.1-2.22-11.87.58-18.05,1.91l-110.09,23.59c-17.29,3.7-32.86,9.41-48.74,16.74-5.79,2.67-5.18-6.75-9.8-8.1-7.09-2.06-26.14,7.71-30.19,14.74-6.54,11.35,2.8,10.46-28.18,33.71-18.23,13.68-35.76,27.67-50.18,45.63-19.19,23.91-34.81,48.99-49.84,75.78-15.65,27.9-20.25,59.94-12.56,91.04,14.15,57.21,59.17,112.33,62.5,132.35,5.62,33.85,15.76,53.04,24.69,86.37,2.61,9.76,3.96,19.43,3.25,29.39-1.36,19.05-21.83,4.81-34.53,29.9-5.28,10.43-11.29,20.02-15.5,30.99-.86,2.23-2.81,3.72-4.33,4.27-4.32,1.57-45.53-12.39-44.74-56.24.09-4.79-4.91-8.23-7.93-9.48-3.79-1.57-8.61,1.12-12.41,4.22l-2.19-15.76c-.89-6.37-14.34-7.8-18.95-2.57-5.92,6.71-10.98,12.81-17.89,18.35l-29.83,23.92c-26.03,20.87-30.52,56.12-15.72,85.36,6.15,12.15,15.21,19.01,28.85,20.9,32.77,4.55,62.53,32.92,52.65,43.4-10.28,10.89-20.91,20.68-27.57,34.2-5.08,10.32-12.02,18.52-21.05,25.49-21.82,16.85-23.13,50.2-31.67,68.87-6.84,14.95-18.87,26.46-30.43,37.02ZM815.81,1453.09l82.14-61.36c1.28-.95,1.99-2.47,1.82-3.38-1.38-7.39-33.93,13.54-38.56,16.31l-88.31,52.73c17.41.86,31.67,4.09,42.91-4.3ZM1131.16,1424.72c8.6,1.8,1.08-25.85-5.66-27.94l-3.21-5.36c-1.11-1.84-3.75-1.42-4.93-.18-5.09,5.36,4.26,21.07-7.31,43.45,9.13-.97,14.85-5.36,21.11-9.98ZM783.51,1431.9c1.3-1.03.74-3.6.61-4.53-.09-.62-1.64-1.54-2.57-.93l-48.99,31.97c16.07,6.04,36.78-15.29,50.95-26.51Z"/><path class="e" d="M519.65,682.01c-8.2,6.46-11.8,14.79-20.78,18.05-3.49,1.27-7.58-4.55-9.03-7.6-8.51-18.01-6.93-37.18-1.72-55.91,12.56-45.12,44.01-37.46,47.69-88.85,21.84,17.38,47.8,57.9,76.37,42.06,13.31-7.38,19.76-24.97,10.89-27.34-5.23-1.4-14.01,16.57-25.64,9.8-20.67-12.04-57.64-41.51-53.25-67.95,7.19-3.63,13.62-5.87,20.99-7.93-.04,5.13-10.47,12.38-4.97,16.31,2.46,1.76,9.54-6.32,13.5-1.21,4.67,6.03-10.4,12.76-5.83,23.63,2.28,5.43,7.77,7.63,13.77,8.63,11.34,1.89,22.26,6.38,33.99,2.44-2.09-12.83-8.44-24.51-15.73-34.32-5.49-7.4-4.32-12.87-.73-21.15,2.46-5.67,4.59-16.03,12.99-15.99,20.19.1,31.59,17.98,32.92,36.79,1.5,21.15,3.74,41.81-4.97,61.58-21.44,48.73-18.42,79.2-55.19,120.27-2.08,2.33,1.47,5.79,3.11,6.76,6.83,4.02,16.46-8.33,25.69-12.3.94.71.65,3.07-.22,4.3l-20.53,28.79c-1.29,1.81-1.49,4.01-.57,5.67,1.35,2.43,6.5,2.41,9,3.46,3.03,1.28-1.12,8.46,2.8,10.76,5.09,2.98,8.83-3.19,14.21-2.65,6.28.63,14.68,22.5,27.55,27.58l33.21,13.08c11.71,4.61,2.62,25.11,11.51,53.9.35,1.12-.27,2.2-.41,2.71-.21.77-1.96,2.29-3.52,1.87-19.68-5.3-38.77-11.94-54.99-24.76-14.58-11.52-27.64-26.02-36.26-42.39-4.54-8.62-8.24-15.33-19.11-16.44-16.21-1.65-31.8-7.95-44.9-17.68-19.67-14.62-12.68-33.33-11.84-53.96Z"/><path class="e" d="M1043.98,955.14c.4,4.3-.15,8.82-1.92,13.5-1.95,20.23-11.43,37.9-25.24,51.79-10.52-1.93-21.9-3.97-32.95.35-14.28-9.59-20.43-26.85-43.21-20.46-28.53,8-31,25.59-45.29,15l-35.9-26.59c8.72-2.36,16.55.42,24.12,2.84,33.02,10.56,61.02,2.91,90.12-14.63,27.19-16.39,40.15-5.28,61.96-18.91,2.82-1.77,5.58-2.88,8.31-2.9Z"/><path class="c" d="M730.11,179.63c-1.61-.57-4.79,1.55-5.11,3.97,1.78,1.31,5.15-1.46,5.11-3.97,8.3,2.94,42.08-22.4,47.53-11.84,3.63,7.04-11.32,9.06-13.46,16.02,5.88,1.67,18.97-13.28,29.62-1.09l44.51,50.95c13.94-21.15-1.37-37.25,24.57-51.28,19.77-10.69,40.56-9.91,62.48-8.2,40.64,3.17,79.37,9.52,117.21,25.15,18.96,7.83,37.52,14.52,55.84,23.52,12.6,6.19,3.96,27.79,15.85,26.05,19.23-2.81,28.83,10.65,41.96,4.25,19.67-9.58,20.41,17.24,52.11,7.45,19.08-5.89,12.56,9.02,40.14,16.32,7.72,2.04,15.24,6.1,20.03,12.99,7.06,10.15,15.25,20.15,19.97,31.79,11.64,28.67,20.14,4.88,67.58,37.61,5.91,4.08,12.25,4.04,15.69,11.9,9.06,20.69,13.61,42.33,14.53,65.28.55,13.69,2.91,26.75,4.22,40.44,2.2,22.92.47,44.69.21,67.52l-.65,58.66c-.51,46.35-.83,91.49.3,137.76.79,32.5-2.77,63.58-30.27,83.84-6.56,4.83-13.58,9.94-18.95,15.29l-3.41,1.94c-2.39,1.36-6.67,6.15-8.72,8.06-8.19,3.48-16.54,14.79-22.93,20.1-11.61,9.65-26.09,18.99-34.62,31.64-4.1.79-5.92,6.63-8.38,8.7-7.9,6.65-16.11,15.21-27.38,13.68l-24.22-3.29c-1.29-1.3-4.3-.76-5.75-1.41-7.08-3.17-15.01-3.33-22.28-5.28l-28.41-7.63-27.2-6.37c-6.78-1.59-13.23-6.27-20.8-3.47l11.64,8.01c2.6,1.79,4.4,3.85,4.29,6.72-.09,2.34-1.16,6.59-4.41,8.09l-65.44,30.31c-2.27,1.05-3.71,2.5-4.8,3.94-1.37-.19-3.27.9-4.37,1.41-2.73.02-5.49,1.13-8.31,2.9-21.81,13.63-34.77,2.52-61.96,18.91-29.1,17.54-57.1,25.19-90.12,14.63-7.57-2.42-15.4-5.2-24.12-2.84l35.9,26.59c14.29,10.59,16.75-7,45.29-15,22.78-6.39,28.94,10.87,43.21,20.46,11.06-4.32,22.43-2.28,32.95-.35.71,1.56,2.99,1.65,4.27,2.24,1.62,1.32,2.86,4.48,5.32,4.79,5.45,7.75,13.88,13.17,22.06,17.87.86,1.07,1.75,2.98,3.96,3.69,15.37,4.89,26.46,16.62,31.12,31.89,1.49,4.87,5.26,8.09,9.41,9.44,1,.33,2.56-.25,3.44.29,7.48,4.53,15.58,8.4,21.95,15.46,19.25,21.32,2.52,42.55,20.66,51.6l30.87,15.4c9.21,4.59,16.91,12.43,27.12,14.87,1.75,3.11,5.34,4.49,8.87,6.3l28.6,14.63,10.27,7.64c9.97,7.41,14.95,10.73,12.15,31.12-.43,3.12-4.74,5.86-4.6,9.28-1.22.38-2.27,2.08-2.97,2.96l-10.83,6.4c-1.51.89-3.95.86-4.59,2.83-3.8.52-11.58.69-14.26-2.9-3.19-6-10.17-8.7-16.81-10.73-1.59-1.62-4.17-2.88-5.98-4.22-9.43-6.98-31.87-21.52-41.94-25.69-1.94-2.55-4.22-5.27-7.66-4.43-.36.09-.79-.15-1.17-.11-1.05-2.63-3.91-3.24-6.07-4.66-12.54-8.28-25.58-16.19-39.14-22.68-1.81-.87-2.44-3.02-5.19-2.91-3.52.14-3.27,3.42-5.17,4.9-8,6.21-13.06,31.5-7.61,32.67,1.97,7.65,8.79,13.77,16.77,13.79l6.1,4.26c1.79,1.25,30.55,30.9,36.31,39.94,10.23,16.06,7.52,17.06,11.41,32.27l.2,4.38c-4.28,5.13,1.2,10.48-6.55,19.47-1.7.9-4.35,2.99-5.73,4.33-4.88-1.4-9.77,2.92-14.64,2.02-4.18-.77-7.83-4.66-12.33-4.66-.44-2.93-3.95-4.08-5.47-6.82l-12.98-23.3c-3.68-6.6-12.6-18.93-20.9-18.21-3.04.26-3.81,4.68-5.58,5.96-3.82-.04-4.32,3.39-6.42,4.81-6.74,4.54-10.6,11.59-15.89,18.39-5.23,6.73-12.36,11.79-15.75,19.26-8.48,2.57-12.49,11.62-17.7,18.04-4.79,5.9-12.87,9.7-14.74,17.7-6.98,4.14-14.28,9.73-18.72,16.46-1.9-.13-2.66,2.59-3.81,3.27-6.7,3.98-12.1,9.76-17.96,14.83-8.14,7.05,3.86,9.72-17.83,36-2.16,2.62-4.43,4.52-4.93,7.36l-58.32.41c-1.4,0-2.51-.56-2.76-1.15-.41-.96-.55-3.23.84-4.19,25.22-17.39,37.1-35.81,62.15-57.7l43.05-37.63c2.28-1.99,4.06-4.3,4.21-6.89l-18.8-1.17c-3.08-.19-4.33-2.68-4.59-4.89-.33-2.72,1.5-4.12,4.42-5l30.12-9.07c9.72-2.93,17.86-8.27,24.45-16.03,54.02-63.68,30.56-54.9,35.27-102.68,1.73-17.52,10.52-32.9,24.27-43.2l17.13-12.83c5.47-4.09,7.07-10.42,7.12-16.58s-3.68-11.08-8.22-15.35c-9.11-8.57-18.04-5.95-27.23.41-17.02,11.77-35.32,20.78-51.28,34.33-3.92,3.33-10.56,5-14.48,1.2-1.83-1.77.25-6.12,1.92-7.75,18.57-18.1,38.25-33.54,59.64-48.65-.55-14.3-19.58-41.33-34.72-30.01l-53.26,39.83c-5.49,4.1-17.9,13.87-22.36,10.41-8.34-6.49,12.3-22.79,17.75-27.1l41.57-32.87c3.48-2.75,3.83-6.76,1.44-10.32-5.23-7.79-14.23-10.71-23.21-7.24-12.62,4.88-24.02,12.07-33.77,21.58l-35.69,34.82c-1.45,1.41-3.9,1.28-5.05,1.59-12.09,3.28,9.44-38.01,34.48-55.98,5.41-3.88,8.07-8.7,5.73-14.79-1.74-4.54-7.64-10.01-13.5-6.85-10,5.39-19.04,12.12-28.69,18.08-5.4,3.34-9.59,7.24-13.39,12.36-16.57,22.39-32.53,44.93-50.95,65.68-8.97,10.1-10.33,20.67-6.38,33.45,9.73,31.5,14.46,64.48,14.9,97.67.29,21.45-11.2,38.98-28.31,50.08l-44.46,28.82c-22.05,14.3-41.78,30.23-64.41,43.82-22.38,13.45-44.92,23.66-68,35.84-32.81,17.33-66.81,28.65-104.01,32.13-30.93,2.9-31.99,23.09-64.59,7.79-59.7-28-115.79-61.11-166.77-103.36-47.5-39.37-90.11-83.11-125.95-133.07-2.5-3.48-4.96-6.49-4.62-10.08,1.07-11.31-20.34-52.58-12.54-79.4l14.12-48.56c4.12-14.17,7.2-28.15,11.72-42.1,5.37-16.57,17.28-31.26,20.17-44.28,11.57-10.56,23.6-22.07,30.43-37.02,8.54-18.67,9.84-52.02,31.67-68.87,9.04-6.98,15.97-15.18,21.05-25.49,6.66-13.52,17.29-23.3,27.57-34.2,9.89-10.48-19.88-38.85-52.65-43.4-13.63-1.89-22.69-8.75-28.85-20.9-14.8-29.24-10.31-64.49,15.72-85.36l29.83-23.92c6.91-5.54,11.97-11.63,17.89-18.35,4.61-5.23,18.06-3.8,18.95,2.57l2.19,15.76c3.8-3.1,8.61-5.79,12.41-4.22,3.01,1.25,8.01,4.68,7.93,9.48-.79,43.86,40.42,57.81,44.74,56.24,1.52-.55,3.47-2.05,4.33-4.27,4.21-10.98,10.22-20.57,15.5-30.99,12.7-25.08,33.18-10.85,34.53-29.9.71-9.96-.64-19.63-3.25-29.39-8.93-33.33-19.07-52.52-24.69-86.37-3.32-20.03-48.35-75.15-62.5-132.35-7.69-31.1-3.09-63.13,12.56-91.04,15.02-26.79,30.64-51.87,49.84-75.78,14.42-17.96,31.95-31.95,50.18-45.63,30.98-23.25,21.65-22.36,28.18-33.71,4.05-7.03,23.1-16.79,30.19-14.74,4.62,1.34,4.01,10.77,9.8,8.1,15.89-7.33,31.45-13.04,48.74-16.74l110.09-23.59c6.18-1.32,11.95-4.13,18.05-1.91,8.94,3.26,27.08,19.06,26.11,27.08-1.05,8.69-56.69,37.28-67.44,51.54,12.3.13,67.42-31.33,71.74-25.65,1.25,1.64.63,3.85-1.42,5.21l-18.09,12.02c-1.54,1.02-3.18,2.4-3.16,3.95ZM1056.69,290.78c6.97.59,14.55-3.75,17.16-9.94,3.68-8.72,3.9-21-1.41-29.09-9.2-13.99-39.78-14.77-53.76-32.92-27.71-11.42-73.08-17.04-103.59-20.55-8.37-.96-13.13,4.21-16.17,10.46-6.39,13.12-9.2,26.31-5.89,41.16l32.2,1.46,31.64-5.08c13.08-2.1,26.38-.05,39.56.45,22.14.85,39.74,14.09,49.04,33.87,2.05,4.35,4.77,9.63,11.23,10.18ZM883.31,249.17c-10.71-15.1,5.36-29.81-3.61-36.8-4.62-3.6-11.6-2.32-17.28-2.18-6.01.14-8.93,4.72-9.1,10.29-.38,11.97-1.58,23.13-.82,34.82,11.36-1.89,20.61-3.18,30.8-6.12ZM1097.57,252.02c-3.96-2.6-8.08-2.27-10.83.71-1.18,5.04.71,9.81,4.97,12.7,4.71-3.01,7.07-7.61,5.87-13.41ZM1089.41,357.08c3.27-6.83,4.76-14.99,2.9-21.37-3.17-10.81,3.1-15.08,9.11-21.7,8.47-9.34,14.61-19.71,26.33-26.27,2.19-1.23,6.06-5.81,5.49-8.8-1.29-6.77-11.69-9.67-16.45-4.99l-28.1,27.61c-4.51,4.43-8.11,9.56-8.99,15.99-1.41,10.36-6.79,36.26-1.28,44.25,2.51,3.65,9.13-.81,11.01-4.73ZM1167.4,377.01c3.44-11.92,4.42-23.34,5.27-34.63.45-6.06,7.11-4.62,9.84-7.57,11.07-11.97,21.79-24.56,37.02-31.76,2.63-1.25,5.81,3.24,5.62,5.18-.83,8.94-15.41,11.51-24.22,27.29-6.17,11.06-14.98,45.16-1.89,45.33,3.27.04,4.32-2.88,4.89-6.13,1.47-8.33,7.2-15.07,9.87-22.63s6.77-10.98,14.06-13.9c11.33-4.53,20.33-13.31,30.92-20.5-9.27-28.74-29.17-17.57-37.36-27.37-12.82-15.34-28.7,1.91-60.66-15.61-8.71-4.78-8.34,13.13-11.78,16.2l-29.42,26.2c-5.26,4.69-7.71,10.2-8.05,17.46-.57,12.16-6.2,34.58,2.27,35.77,8.3,1.16,5.25-6.22,14.5-17.56,5.43-6.65-2.44-9.9-1.73-12.93,1.05-4.47,10.7-.15,11.54-14.43,8.95-10.88,17.56-21.47,27.3-31.51,3.25-3.35,16.5-8.08,18.79-.03,2.4,8.44-32.75,25.01-32.61,55.63.04,9.63,1.29,19.13,5.32,27.84,1.53,3.31,9.42,3.44,10.52-.36ZM1268.31,503.1c33.54-105.03,71.55-76.72,75.72-83.17,2.37-3.66-16.54-10.76-21.75-13.23-13.98,8.74-29.79,17.08-39.4,31.7-20.14,30.62-28.79,67.68-28.52,103.45,1.97,1.72,6.14-1.14,6.26-3.84.56-12.03,3.79-22.71,7.69-34.92ZM707.44,486.7c1.75,22.3,16.33,40.66,37.36,47.75l18.02,6.07c5.61,1.89,7.51,7.28,5.08,12.79-6.13,13.91-2.4,29.17,9.63,38.5,6.14,4.76,14.05,6.09,21.4,2.93,9.35-4.01,18.63-6.96,27.96-12.31-10.64-10.96-6.38-26.36-1.25-26.35,5.75,0,4.09,10.98,13.78,15.21,14.34,6.26,17.86-7.42,43.92-4.4,6.66.77,10,6.45,11.7,12.76,20.05-8.41-36.08-60.28-29.82-95.14l4.56-25.45c1.29-7.17,1.45-13.93,5.37-20.09.73-1.14.06-3.09-.4-3.72-1.55-2.12-23.54-.15-25.81.2l-31.77,4.9c14.89,1.33,28.76.94,40.83,9.3,3.91,2.71,7.12,5.54,6.93,10.16-.15,3.63-1.99,7.54-5.87,9.65l-21.28,11.53c-12.19,6.6-1.61,16.24-4.4,20.13-2.01,2.8-29.37,1.68-34.32.19-9.22-2.79-17.16-5.5-27.15-3.9-3.84.62-9.98,1.15-13.51-.72-10.32-5.46,9.08-16.25,3.7-17.92-2.87-.89-8.62.47-9.55-2.61-2.44-7.99,4.1-13.36,10.41-16.61,10.94-5.62,19.86-12.31,30.94-16.14-18.47-1.73-32.99-.32-48.43-2.66l-16.58-2.52c-23.37-3.55-22.59,34.07-21.46,48.45ZM794.88,469.87c11.04-1.64,21.66-2.37,32.65-3.15-2.66-7.25-30.1-2.27-37.29-1.88-1.36,2.23,2.02,5.43,4.65,5.04ZM519.65,682.01c-.85,20.63-7.83,39.35,11.84,53.96,13.09,9.73,28.69,16.04,44.9,17.68,10.87,1.1,14.57,7.82,19.11,16.44,8.62,16.37,21.68,30.87,36.26,42.39,16.22,12.82,35.31,19.46,54.99,24.76,1.56.42,3.31-1.11,3.52-1.87.14-.51.75-1.59.41-2.71-8.89-28.79.2-49.28-11.51-53.9l-33.21-13.08c-12.88-5.07-21.27-26.94-27.55-27.58-5.38-.54-9.12,5.63-14.21,2.65-3.92-2.29.23-9.48-2.8-10.76-2.51-1.05-7.65-1.03-9-3.46-.92-1.66-.72-3.86.57-5.67l20.53-28.79c.88-1.23,1.16-3.59.22-4.3-9.23,3.97-18.86,16.33-25.69,12.3-1.63-.96-5.19-4.43-3.11-6.76,36.78-41.07,33.75-71.55,55.19-120.27,8.7-19.78,6.46-40.43,4.97-61.58-1.33-18.81-12.73-36.69-32.92-36.79-8.4-.04-10.53,10.33-12.99,15.99-3.59,8.28-4.76,13.75.73,21.15,7.29,9.82,13.63,21.49,15.73,34.32-11.73,3.94-22.66-.55-33.99-2.44-6-1-11.49-3.2-13.77-8.63-4.57-10.87,10.5-17.6,5.83-23.63-3.96-5.11-11.04,2.97-13.5,1.21-5.49-3.93,4.94-11.18,4.97-16.31-7.37,2.06-13.8,4.3-20.99,7.93-4.38,26.44,32.58,55.91,53.25,67.95,11.62,6.77,20.4-11.2,25.64-9.8,8.87,2.37,2.41,19.96-10.89,27.34-28.57,15.84-54.53-24.68-76.37-42.06-3.68,51.39-35.13,43.73-47.69,88.85-5.21,18.73-6.79,37.9,1.72,55.91,1.44,3.05,5.54,8.86,9.03,7.6,8.98-3.26,12.58-11.6,20.78-18.05ZM806.43,485.35c0-1.91-1.55-3.46-3.46-3.46s-3.46,1.55-3.46,3.46,1.55,3.46,3.46,3.46,3.46-1.55,3.46-3.46ZM1174.1,599.06c7.05,1.27,18.01,3.85,23.12-.24s1.32-15.06.36-20.51c-7.7-2.2-14.04-.09-21.47-1.06l-75.25-9.83c-9-1.18-17.53-5.01-25.95-1.17l32.59,11.71c-7.74,5.3-16.51,2.2-24.85,3.54,12.51,4.45,24.92,5.6,37.6,7.88l53.86,9.67ZM1268.82,651.18c2.99-4.28,5.6-8.57,7.68-13.81-4.47-3.15-7.68.74-11.05,2.74-19.06,11.35-9.81,30.86-9.37,30.92,4.35.61,4.5-8.07,12.74-19.86ZM880.68,670.04c-5.47-2.17-15.47,22.87-7.26,23.04,4.76.1,13.82-20.44,7.26-23.04ZM324.76,735.55c1.62-14.3,8.86-23.81,18.63-32.42-.19-7.18-2.49-14.49-7-20.2-7.43,8.15-10,17.22-13.86,26.16-5.23,12.11-14.36,6.48-15.98,10.87-2.66,7.21,11.05,13.99,18.2,15.59ZM288.61,710.06c.78-4.92-6.21-10.52-9.72-11.5s-6.12,3.65-7.14,5.74-1.37,6.48,1.21,8.32c3.42,2.44,14.71,3.43,15.65-2.56ZM482.37,807.63c9.98-5.17-17.68-8.84-18.84-9.54-32.46-19.66-64.53-38.45-97.97-56.29-2.6-1.39-4.11-3.92-4.16-5.99-.13-5.13,7.73-8.42,4.23-12.63-3.27-3.95-8.84-5.25-13.7-3.69-5.38,8.12-21.09,20.47-11.3,27.24,16.58,11.46,21.16,3.99,43.94,15.96l81.39,42.75c4.61,2.42,11.96,4.49,16.4,2.19ZM312.81,747.43c-6.59-4.65-23.72-20.55-28.45-16.67-3.08,2.52-4.97,27.69,12.9,31.14,7.84,1.51,15.29-6.8,15.55-14.47ZM887.67,763.06c6.55-8.8,9.54-22.29-.02-31.44-.88,10.75-.77,20.6.02,31.44ZM523.95,807.7l-95.03-60.31c-4.48-2.84-21.82-14.77-25.71-9.22-.82,1.18-1.39,5.38-.06,6.83l91.89,54.01c3.13,1.84,25.12,18.02,28.9,8.68ZM550.02,830.15c1.49-5.36-3.27-8.3-6.27-9.53s-7.12-1.61-9.88,1.35c-3.01,3.23-3.37,8.2-7.44,11.21l-30.11-15.44c-2.41-1.24-4.96.7-5.28,2.78-2.39,15.25-25.86,16.77-39.47,12.15-8.01-2.72-17.65-1.89-25.22-6.53-24.48-15.03-49.82-27.43-79.14-34.85.91,9.03,7.29,15.65,14.69,19.67,29.58,16.08,58.89,31.3,89.48,45.21,8.56,3.89,17.29,1.17,23.7-4.48,8.43-7.43,25-19.22,35.92-11.43l19.18,13.69c3.62,2.58,8.26,1.03,9.97-2.99,2.91-6.84,7.68-12.88,9.89-20.82ZM888.81,815.5c3.67-4.48,7.88-8.81,2.86-16.05-4.49,9.59-14.48,11.26-20.14,16.44-8.95,8.19-11.09,22.22-22.32,29.53,6.61,12.55,36.49-26.11,39.61-29.92ZM826.96,1108.35c5.18,3.38,11.83-.35,14.2-3.49,9.45-12.55-9.91-19.23-23.54-28.05l-210.15-135.9-72.55-46.09c-16.33-10.38-28.94-23.57-39.82-40.39-9.75,9.42-18.9,16.9-30.99,20.88-1.5.49-2.4,2.13-2.26,3,.74,4.42,19.88,16.52,25.76,20.14l175.14,107.84,102.22,61.71,61.98,40.36ZM880.36,1036.77l-30.73-24.97c-56.5-45.91-136.6-79.26-192.48-125.41-9.56-7.89-31.13-29.39-40.57-26.31-4.02,1.31-14.03,15.64-9.84,18.19l121.96,74.15c28.47,17.31,57.05,31.09,84.99,48.69l54.17,34.14c3.55,2.24,7.99,7.21,12.51,1.52ZM731.17,1314.34c-4.16,1.57-8.03-.9-9.49-2.83s-2.47-4.72-1.61-7.91c1.31-4.89,5.55-8.86,10.49-10.95l100.12-42.28c3.07-1.3,6.12-1.75,6.92-4.02s1.6-5.95-.65-7.56c-3.3-2.36-8.69-1.73-12.77-.23l-85.21,31.38c-6.23,2.29-12.45,4.59-19.05,5.2-4.37.41-5.76-5.07-6.76-7.87-.85-2.38-1.05-8.2,2.82-9.69,23.87-9.16,48.1-16.3,72.74-23.51,4.65-1.36,9.17-1.56,12.35-5.22-31.44,1.51-57.65,11.73-89.46,16.96-6.02.99-10.47-1.19-13.61-6.38l-94.83-156.88c-28.22-46.68-60.16-89.3-95.88-130.31-26.9-30.88-56.85-57.05-92.92-76.79-24.81-13.58-53.88-15.57-80.64-8.14-6.57,1.82-11.59,7.89-12.38,14.82,17.01-3.16,32.72-2.08,49.13,2.55,51.4,14.5,72.12,46.53,100.86,87.19,14.89,21.06,28.58,41.26,40.78,64.29l85.14,160.77,34.66,67.32c5.1,9.91,4.21,19,2.26,29.43-3.64,19.49-6.13,38.65-11.26,57.91-2.82,10.56-2.58,21-.43,31.59,1.97,9.7,11.73,16.56,21.78,12.15,41.11-18.02,77.7-42.37,114.73-67.78,23-15.78,46.34-28.45,67.69-46.25,3.55-2.96,7.69-6.4,8.66-10.72-.64-1.35-3.78-1.44-5.52-.74-34.81,14.07-65.09,31.83-98.65,44.47ZM571.49,1377.3c-5.77-13.13-6.47-17.94-12.54-16.26-.9.25-1.04,2.02-.6,3.95l5.69,25.26c5.38,1.68,9.98-7.19,7.45-12.96Z"/><path class="e" d="M707.44,486.7c-1.13-14.38-1.91-52,21.46-48.45l16.58,2.52c15.43,2.34,29.96.93,48.43,2.66-11.08,3.83-20,10.52-30.94,16.14-6.31,3.24-12.84,8.61-10.41,16.61.94,3.08,6.68,1.71,9.55,2.61,5.37,1.67-14.03,12.46-3.7,17.92,3.53,1.87,9.66,1.33,13.51.72,9.99-1.6,17.93,1.11,27.15,3.9,4.95,1.5,32.31,2.62,34.32-.19,2.79-3.89-7.79-13.53,4.4-20.13l21.28-11.53c3.89-2.11,5.73-6.02,5.87-9.65.19-4.63-3.03-7.46-6.93-10.16-12.06-8.36-25.94-7.96-40.83-9.3l31.77-4.9c2.26-.35,24.26-2.31,25.81-.2.47.64,1.13,2.58.4,3.72-3.92,6.16-4.09,12.92-5.37,20.09l-4.56,25.45c-6.25,34.86,49.87,86.73,29.82,95.14-1.7-6.31-5.04-11.99-11.7-12.76-26.07-3.02-29.59,10.66-43.92,4.4-9.69-4.23-8.02-15.2-13.78-15.21-5.13,0-9.39,15.39,1.25,26.35-9.34,5.35-18.61,8.3-27.96,12.31-7.36,3.16-15.26,1.83-21.4-2.93-12.03-9.33-15.75-24.59-9.63-38.5,2.43-5.51.53-10.9-5.08-12.79l-18.02-6.07c-21.04-7.08-35.61-25.45-37.36-47.75Z"/><path class="e" d="M1056.69,290.78c-6.46-.55-9.19-5.82-11.23-10.18-9.3-19.77-26.89-33.02-49.04-33.87-13.18-.51-26.49-2.55-39.56-.45l-31.64,5.08-32.2-1.46c-3.31-14.85-.49-28.04,5.89-41.16,3.04-6.25,7.8-11.42,16.17-10.46,30.51,3.5,75.88,9.12,103.59,20.55,13.98,18.15,44.56,18.93,53.76,32.92,5.32,8.09,5.09,20.37,1.41,29.09-2.61,6.19-10.19,10.53-17.16,9.94Z"/><path class="k" d="M1167.4,377.01c-1.1,3.8-8.99,3.68-10.52.36-4.04-8.72-5.28-18.21-5.32-27.84-.14-30.63,35.01-47.19,32.61-55.63-2.29-8.05-15.54-3.32-18.79.03-9.74,10.04-18.36,20.63-27.3,31.51-.84,14.27-10.49,9.95-11.54,14.43-.71,3.03,7.16,6.28,1.73,12.93-9.26,11.34-6.2,18.72-14.5,17.56-8.47-1.19-2.83-23.6-2.27-35.77.34-7.26,2.79-12.78,8.05-17.46l29.42-26.2c3.44-3.06,3.06-20.97,11.78-16.2,31.95,17.51,47.84.27,60.66,15.61,8.19,9.8,28.1-1.37,37.36,27.37-10.59,7.19-19.59,15.97-30.92,20.5-7.29,2.91-11.32,6.14-14.06,13.9s-8.39,14.29-9.87,22.63c-.57,3.24-1.62,6.17-4.89,6.13-13.09-.18-4.28-34.27,1.89-45.33,8.81-15.78,23.39-18.35,24.22-27.29.18-1.94-2.99-6.43-5.62-5.18-15.23,7.21-25.94,19.79-37.02,31.76-2.73,2.95-9.38,1.51-9.84,7.57-.85,11.29-1.82,22.71-5.27,34.63Z"/><path class="k" d="M1174.1,599.06l-53.86-9.67c-12.68-2.28-25.09-3.43-37.6-7.88,8.34-1.34,17.11,1.76,24.85-3.54l-32.59-11.71c8.42-3.85,16.95,0,25.95,1.17l75.25,9.83c7.44.97,13.78-1.15,21.47,1.06.96,5.45,4.82,16.37-.36,20.51s-16.07,1.51-23.12.24Z"/><path class="k" d="M1268.31,503.1c-3.9,12.21-7.13,22.89-7.69,34.92-.13,2.7-4.3,5.56-6.26,3.84-.27-35.77,8.38-72.83,28.52-103.45,9.61-14.61,25.42-22.96,39.4-31.7,5.21,2.46,24.12,9.56,21.75,13.23-4.17,6.45-42.18-21.86-75.72,83.17Z"/><path class="k" d="M1089.41,357.08c-1.88,3.92-8.5,8.38-11.01,4.73-5.5-7.99-.13-33.89,1.28-44.25.88-6.43,4.49-11.56,8.99-15.99l28.1-27.61c4.77-4.68,15.16-1.79,16.45,4.99.57,2.98-3.3,7.57-5.49,8.8-11.72,6.56-17.85,16.93-26.33,26.27-6.01,6.62-12.28,10.89-9.11,21.7,1.87,6.37.37,14.54-2.9,21.37Z"/><path class="k" d="M883.31,249.17c-10.2,2.95-19.45,4.24-30.8,6.12-.77-11.69.44-22.85.82-34.82.18-5.57,3.09-10.14,9.1-10.29,5.68-.14,12.66-1.41,17.28,2.18,8.97,6.99-7.1,21.71,3.61,36.8Z"/><path class="k" d="M888.81,815.5c-3.12,3.81-33,42.46-39.61,29.92,11.23-7.3,13.37-21.34,22.32-29.53,5.66-5.18,15.66-6.85,20.14-16.44,5.02,7.24.81,11.57-2.86,16.05Z"/><path class="k" d="M1268.82,651.18c-8.24,11.79-8.38,20.47-12.74,19.86-.44-.06-9.69-19.58,9.37-30.92,3.37-2.01,6.58-5.9,11.05-2.74-2.09,5.24-4.69,9.53-7.68,13.81Z"/><path class="k" d="M794.88,469.87c-2.63.39-6.01-2.81-4.65-5.04,7.2-.39,34.63-5.37,37.29,1.88-10.99.78-21.61,1.51-32.65,3.15Z"/><path class="k" d="M880.68,670.04c6.56,2.6-2.5,23.14-7.26,23.04-8.21-.17,1.79-25.21,7.26-23.04Z"/><path class="b" d="M887.67,763.06c-.79-10.84-.9-20.7-.02-31.44,9.56,9.15,6.57,22.64.02,31.44Z"/><path class="k" d="M1097.57,252.02c1.21,5.8-1.16,10.4-5.87,13.41-4.26-2.89-6.15-7.66-4.97-12.7,2.76-2.98,6.88-3.31,10.83-.71Z"/><circle class="b" cx="802.98" cy="485.35" r="3.46"/><path class="b" d="M730.11,179.63c.04,2.51-3.33,5.28-5.11,3.97.31-2.42,3.5-4.54,5.11-3.97Z"/><rect class="k" x="736.41" y="1561.5" width="91.49" height="1.5"/><path class="f" d="M1341.16,840c2.06,7.04,1.17,14.65-.22,22.58-6.55,37.39-8.88,62.87.54,99.85.72,2.81,5.18,2.64,7.15,2.05,7.36-2.21,10.36-26.22,11.58-32.94,2.74-15.11,6.09-29.48,4.3-45.04-.37-3.25-3.28-9.61.4-11.68,6.45-3.63,9.83-8.5,9.62-15.63,4.65-2.87,6.25,15.95,6.01,17.93-.4,3.38-5.58,2.76-8.02,3.83-3.07,1.35-2.5,5.11-2.59,7.46-.11,3.05,2.87,4.87,5.32,7.12,9.4,8.61,14.2,23.03,21.93,24.38,17.74,3.1,3.19-34.46,11.16-39.91,1.14-.78,4.44-.76,5.29,1.47,5.82,15.19,14.63,28.11,24.6,40.97,2.32,2.99,4.82,5.64,4.82,9.09-1.87-.88-16.42-16.2-20.65-5.71-1.95,4.82.35,10.87,1.64,15.63l15.09,55.4c1.23,4.53,1.08,9.66-4.05,12.22l-43-50.84c-5.67-6.71-12-14.72-21.33-15.83-3.51,2.05-1.03,8.92-.56,12.4,1.94,14.42,4.79,27.77,12.04,40.37-.19,17.05,9.42,26.24,9.3,38.67-10.64-5.19-6.64-34.91-19.92-31.73-2.83.68-5.44,2.93-5.32,7.22.78,28.03-4.54,46.3,22.06,66.75,18.5,14.22,27.11,37.15,28.56,59.94.14,2.13,1.31,5.68,3.1,4.48-2,2.09-4.87,7.31-5.93,10.04-3.03.2-1.96-3.33-2.14-6.06-.92-13.43-4.62-26.73-9.61-38.98-12.66-1.74-7.34,20.17-30.26,38.74-6.51,5.28-13.36-4.64-16.47-5.62-1.8-7.11-9.23-2.66-14.56-20.78-9-30.53-12.52-24.87-18.13-61.82-2.45-16.15-5.83-31.76-3.04-48.07.57-3.33-.23-6.93-2.02-8.97-1.39-1.59-5.92-4.8-7.75-2.25l-13.78,19.15c-4.01,5.58-7.23,11.47-8.82,18.3-1.08,4.64-5.74,8.17-10.62,5.93-5.97-2.75-11.08-1.63-15.72,4.18-42.29,52.89-28.12,124.95,15.07,173.44,3.68,4.13,5.19,9.56,2.12,14.61-3.39,5.6-6.84,11.83-11.76,16.29-2.74,2.48-7.07-1.32-9.69-.97,2.79-20.4-2.19-23.71-12.15-31.12l-10.27-7.64c.57-3.51-2.15-6.36-3.48-9.85-15.24-40.03-39.89-44.55-55.76-67.04-13.34-18.9.8-39.28,14.77-52.83,30.2-29.3,61.75-45.51,91.44-79.66,32-36.81,43.82-69.29,27.89-117.29-1.49-4.48-2.99-8.15-3.27-12.13,6.39-5.31,14.75-16.62,22.93-20.1,2.6.19,5.17,1.18,8.39.38.72-3.24.29-5.85.33-8.44l3.41-1.94Z"/><path class="g" d="M1341.03,1117.85c-2.46,0-5.43-1.28-6.84-4.41-14.55-32.21-21.56-66.85-20.41-102.36.07-2.18-1.15-3.8-2.22-4.01-1.22-.24-2.43.15-3.46,1.25-16.51,17.56-19.07,36.2-32.98,55.61-7.62,41.02-9.5,53.16-.17,93.97,4.46,19.51,15.75,36.55,32.09,47.27,13.52,8.87,29.52,6.9,40.52-4.44,14.8-15.26,19.11-37.15,9.38-56.3-1.07-2.11-.92-4.12-1.35-5.8,3.11.98,9.95,10.89,16.47,5.62,22.92-18.57,17.6-40.48,30.26-38.74,5,12.25,8.69,25.54,9.61,38.98.19,2.73-.89,6.26,2.14,6.06-3.89,10.02-15.41,27.59-21.94,36.89-5.17,7.36-28.17,42.74-33.15,42.63-3.54-.08-6.33,2.06-9.43,4.41-23.59,17.9-31.58,16.19-51.59,42.65-2.64,3.5-8.24,4.84-10.55,8.92-3.03,5.34-8.95,6.05-13.53,8.97-2.53,1.61-3.99,4.95-6.71,2.95-9.73-7.14,5.71-21.57-9.39-42.19-1.02-1.12-4.48,1.14-5.47,1.16-.14-3.42,4.17-6.15,4.6-9.28,2.62-.35,6.95,3.46,9.69.97,4.92-4.46,8.37-10.69,11.76-16.29,3.06-5.06,1.56-10.48-2.12-14.61-43.19-48.5-57.36-120.55-15.07-173.44,4.65-5.81,9.75-6.93,15.72-4.18,4.88,2.24,9.54-1.29,10.62-5.93,1.59-6.83,4.8-12.72,8.82-18.3l13.78-19.15c1.83-2.55,6.36.66,7.75,2.25,1.78,2.04,2.59,5.64,2.02,8.97-2.79,16.31.59,31.93,3.04,48.07,5.62,36.95,9.14,31.29,18.13,61.82Z"/><path class="h" d="M1496.69,938.77c-1.23,10.81-4.03,21.4-7.51,31.72-2.04-.19-3.93-1.32-5.72-3.15l-22.29-22.69c-4.91-4.99-9.02-10.19-15.58-11.71-.89-.21-1.7-1.04-2.52-1.43,0-3.45-2.51-6.1-4.82-9.09-9.96-12.87-18.78-25.79-24.6-40.97-.86-2.23-4.16-2.25-5.29-1.47-7.97,5.45,6.58,43.01-11.16,39.91-7.72-1.35-12.53-15.77-21.93-24.38-2.45-2.25-5.44-4.07-5.32-7.12.09-2.35-.48-6.11,2.59-7.46,2.44-1.07,7.62-.45,8.02-3.83.23-1.97-1.37-20.8-6.01-17.93-.04-1.34-.31-2.75-.61-4.06,3.24-8.87,1.89-18.97,4.05-28.93,4.29-19.81,19.95-33.18,19.77-38.76,5.45-3.96,46.3-36.86,49.29-27.61,1.81,5.6-39.55,41.27-18.83,96.54,13.67,36.46,39.03,59.87,68.48,82.4Z"/><path class="g" d="M1443.07,931.52c.83.39,1.63,1.22,2.52,1.43-.17,2.87,2.38,4.27,4.35,6.48,10.57,11.88,23.12,21.4,31.73,33.97-2.46-.76-5.36-1.95-7.62-4.25l-22.12-22.46c-7.28-7.39-13.31-16.52-25.16-19.16,2.24,23.52,9.57,44.64,16.62,66.42,7.34,22.68,9.95,45.43,14.3,68.03-5.12,10.25-8.42,20.72-13.58,31.49-3.76-2.35-5.5-7.05-9.2-10.11l-16.47-13.62c-11.55-9.55-20.89-22.72-26.9-35.89.12-12.43-9.49-21.62-9.3-38.67-7.25-12.6-10.1-25.96-12.04-40.37-.47-3.49-2.95-10.36.56-12.4,9.33,1.11,15.66,9.12,21.33,15.83l43,50.84c5.13-2.57,5.28-7.7,4.05-12.22l-15.09-55.4c-1.3-4.76-3.59-10.81-1.64-15.63,4.23-10.49,18.78,4.83,20.65,5.71Z"/><path class="h" d="M1391.53,1033.85c6.01,13.16,15.35,26.33,26.9,35.89l16.47,13.62c3.71,3.06,5.44,7.76,9.2,10.11l-16.02,33.41c-2.1,4.37-5.16,10.58-8.08,13.64-1.78,1.2-2.96-2.35-3.1-4.48-1.45-22.79-10.06-45.72-28.56-59.94-26.59-20.44-21.28-38.72-22.06-66.75-.12-4.29,2.49-6.55,5.32-7.22,13.28-3.17,9.29,26.54,19.92,31.73Z"/><path class="b" d="M1481.66,973.39c1.47,2.15,3.28,4.24,5.91,4.82-7.65,28.7-16.76,57.52-29.89,83.76-4.35-22.6-6.96-45.35-14.3-68.03-7.05-21.78-14.38-42.89-16.62-66.42,11.86,2.64,17.88,11.77,25.16,19.16l22.12,22.46c2.26,2.29,5.16,3.49,7.62,4.25Z"/><path class="g" d="M1496.69,938.77c-29.45-22.53-54.81-45.94-68.48-82.4-20.72-55.27,20.64-90.94,18.83-96.54-3-9.25-43.85,23.66-49.29,27.61-.11-3.51,2.29-5.83,4.9-8.67,10.93-11.9,24.68-19.41,39.17-26.74,4.53-2.29,10.34-6.19,15.09-2.45,10.79,8.49-33.89,24.81-25.47,92.51,1.49,11.97,5.93,22.65,12.89,32.2,3.22,4.42,4.81,10.16,8.58,14.02l25.9,26.53c4.63,4.75,9.55,9.83,14.49,13.86,4.33,3.53,3.86,6.04,3.4,10.08Z"/><path class="b" d="M1020.08,1430.91c-.21,2.54-1.98,4.73-4.46,6.51-8.77,6.32-16.65,12.92-24.8,19.94-2.68,2.31-7.43.27-9.99.46,2.46-24.13,7.5-30.63,3.46-58.75-.74-5.16,7.14-14.3,12.12-11.94,11.27,5.36,13.96,19.18,13.1,30.35-.51,6.58-3.25,11.81-1.9,18.31,5.51-.13,8.45-3.92,12.47-4.89Z"/><path class="h" d="M1264.57,1329.3c1.09,5.67-24.97,24.93-30.01,26.87.54-15.02,7.4-16.64,8.71-37.66,1.13-18.15-.46-35.32-4.77-52.21l10.83-6.4c-.24,8.18,3.21,16.32,7.82,23.81,3.62,16,8.04,30.32,7.42,45.59Z"/><path class="b" d="M1358.99,1230.06c-3.11,9.44-11.52,19.8-21.68,22.95-6.86,2.12-10.09,4.82-15.21,9.16-8.87,7.52-17.65,14.02-25,23.32-5.87,7.43-14.41,12.69-21.89,18.34-15.73,11.87-2.57,24.13-10.63,25.47.62-15.27-3.8-29.59-7.42-45.59-4.6-7.49-8.06-15.63-7.82-23.81.7-.87,1.76-2.58,2.97-2.96,1-.03,4.46-2.28,5.47-1.16,15.1,20.61-.33,35.05,9.39,42.19,2.72,1.99,4.18-1.34,6.71-2.95,4.58-2.92,10.5-3.63,13.53-8.97,2.31-4.08,7.91-5.42,10.55-8.92,20.01-26.46,28-24.75,51.59-42.65,3.1-2.35,5.88-4.49,9.43-4.41Z"/><path class="f" d="M1219.66,1266.23c-1.41,2.26-1.4,5.04-.25,7.41l.1,83.8c0,2.95,1.75,4.72,3.65,4.93,2.08.23,3.22-.81,4.22-3.01,12.01-26.39,13.68-55.21,8.38-83.03-.46-2.44-1.04-4.84-1.84-7.2.64-1.97,3.08-1.94,4.59-2.83,4.31,16.88,5.9,34.06,4.77,52.21-1.31,21.02-8.17,22.64-8.71,37.66-1.44,2.88-4.72,5.07-8.01,7.32-7.94,5.43-14.86,13.56-23.56,16.28.5-6.93,2.04-14,4-21.41,7.31-27.56,7.27-55.27-.25-82.74-1.91-6.97-3.43-13.61-3.91-20.11,6.64,2.03,13.62,4.73,16.81,10.73Z"/><path class="g" d="M1202.85,1255.5c.48,6.5,2,13.14,3.91,20.11,7.52,27.47,7.56,55.18.25,82.74-1.96,7.4-3.51,14.48-4,21.41-1.52,4.45-7.66,5.3-10.74,7.61-.63-3.61,1.71-6.48,3.12-10.4,13.52-37.71,13.71-78.78,1.66-117.01-1.08-3.42-1.64-6.03-.18-8.68,1.81,1.34,4.39,2.6,5.98,4.22Z"/><path class="f" d="M980.32,1396.44c1.67,20.67-.09,40.98-4.16,61.27-5.48.84-11,.16-16.5.19-.68-4.42.89-8.92,3.01-13.37l12.09-25.43c3.03-6.38,3.75-13.13,1.74-19.38,1.15-.69,1.91-3.4,3.81-3.27Z"/><path class="f" d="M1125.5,1396.79c-2.23,8.17,5.67,16.59,5.66,27.94-6.26,4.62-11.98,9.01-21.11,9.98,11.58-22.38,2.22-38.09,7.31-43.45,1.17-1.24,3.82-1.66,4.93.18l3.21,5.36Z"/><path class="f" d="M1397.74,787.44c.18,5.57-15.48,18.95-19.77,38.76-2.16,9.96-.8,20.06-4.05,28.93-4.97-21.7,2.35-45.16,16.66-62.64,2.39-2.92,5-3.48,7.16-5.05Z"/><path class="f" d="M1489.18,970.49c-.79,2.34-.95,5.26-1.6,7.72-2.63-.58-4.44-2.67-5.91-4.82-8.6-12.56-21.16-22.08-31.73-33.97-1.97-2.21-4.52-3.61-4.35-6.48,6.56,1.52,10.68,6.72,15.58,11.71l22.29,22.69c1.79,1.82,3.68,2.95,5.72,3.15Z"/><path class="b" d="M1131.16,1424.72c0-11.35-7.89-19.76-5.66-27.94,6.74,2.09,14.26,29.74,5.66,27.94Z"/><path class="i" d="M1127.86,900.13c6.65,12.82,20.34,20.4,32.91,28.34,6.72,4.24,10.7,11.81,14.97,18.3,8.43,12.83,9.27,28,3.64,42.13-1.52,3.82-8.01,18.87-3.41,20.84,1.04.44,3.76,1.27,5.27.18,17.85-13,28.73-32.62,33.61-54.28,4.9-21.76-1.07-20.45-3.35-34.81l24.22,3.29c11.27,1.53,19.47-7.02,27.38-13.68,4.58,1.78,4.15,7.69,6.1,12.05,10.21,22.82,7.42,47.48-7.82,67.62-10.02,13.25-23.31,22.78-37.9,31.32-21.19,12.39-41.54,24.46-61.3,39.13-5.8,4.31-10.95,10.15-13.48,16.32-8.69-1.46-11.81,15.71-19.1,17.48.2-16.85,7.96-32.55,18.71-44.97,1.55-1.79,1.08-4.33.12-5.79-4.57-6.95-46.08,20.71-45.74,30.24.02.48-.28,1-.39,1.47-6.12,1.83-9.63,8.83-9.33,15.04-4.15-1.35-7.92-4.57-9.41-9.44-4.66-15.27-15.74-27-31.12-31.89-2.21-.7-3.1-2.61-3.96-3.69,6.88-21.37,10.03-42.86,7.73-65.98-.95-9.56-2.37-18.17-7.87-25.62,1.09-1.44,2.53-2.89,4.8-3.94l65.44-30.31c3.25-1.51,4.33-5.75,4.41-8.09.11-2.87-1.7-4.93-4.29-6.72l-11.64-8.01c7.57-2.8,14.02,1.89,20.8,3.47Z"/><path class="h" d="M1234.48,1208.9l-28.6-14.63c-3.53-1.81-7.12-3.19-8.87-6.3,1.48-1.42.28-2.95-.2-4.05-.76-1.76-4.53-1.55-5.55-2.58l-21.55-21.75c-.04-3.05-1.9-5.49-4-8.28-9.25-12.27-15.94-25.79-20.92-40.4-3.21-9.41-1.03-19.22,4.87-27.03,15.67-20.75,48.47-39.34,71.41-51.77,11.93-6.46,22.48-13.79,31.37-24.09,19.32-9.74,30.2-35.71,30.19-56.24,0-17.58-5.48-34.12-11.16-50.06,8.53-12.65,23.01-21.98,34.62-31.64.28,3.97,1.79,7.65,3.27,12.13,15.93,48.01,4.1,80.48-27.89,117.29-29.69,34.16-61.24,50.36-91.44,79.66-13.97,13.56-28.12,33.93-14.77,52.83,15.87,22.49,40.52,27,55.76,67.04,1.33,3.49,4.04,6.34,3.48,9.85Z"/><path class="f" d="M1169.72,1159.6c-4.27,4.69-26.6-35.31-28.93-39.52-6.38-11.55-2.11-32.85,4.04-36.33,3.55-2,2.88-4.47,3.87-6.88,2.53-6.17,7.68-12.01,13.48-16.32,19.76-14.67,40.11-26.74,61.3-39.13,14.59-8.54,27.88-18.07,37.9-31.32,15.25-20.15,18.03-44.8,7.82-67.62-1.95-4.36-1.52-10.27-6.1-12.05,2.46-2.07,4.28-7.91,8.38-8.7,5.68,15.94,11.15,32.48,11.16,50.06,0,20.53-10.87,46.5-30.19,56.24-8.89,10.3-19.43,17.62-31.37,24.09-22.94,12.42-55.74,31.02-71.41,51.77-5.9,7.81-8.08,17.62-4.87,27.03,4.99,14.61,11.68,28.13,20.92,40.4,2.1,2.79,3.97,5.23,4,8.28Z"/><path class="g" d="M1148.69,1076.87c-.99,2.41-.32,4.88-3.87,6.88-6.15,3.48-10.42,24.78-4.04,36.33,2.33,4.22,24.66,44.21,28.93,39.52l21.55,21.75c1.03,1.03,4.79.82,5.55,2.58.47,1.1,1.68,2.63.2,4.05-10.21-2.44-17.91-10.28-27.12-14.87-.6-2.76-3.21-4.41-5.66-6.46-14.51-12.1-26.85-25.95-34.4-43.25-13.3-30.5-3.67-44.96,11-73.21-14.87,1.88-28.54,16.99-38.14,23.65-.34-9.53,41.17-37.19,45.74-30.24.96,1.46,1.43,3.99-.12,5.79-10.75,12.42-18.51,28.11-18.71,44.97,7.28-1.77,10.4-18.95,19.1-17.48Z"/><path class="h" d="M1183.47,914.13c2.98,5.42,10.07,3.8,15.46,6.49,16.51,8.26,8.28,57.18-11.25,70.27,5.34-13.9,6.78-24.17.75-36.18-3.45-6.87-5.7-15.44-12.92-18.42-1.54-4.79-6.44-8.47-10.68-11.59l-21.62-15.86c4.26-3.65,8.88,1.15,11.85-2.34l28.41,7.63Z"/><path class="g" d="M1155.06,906.5c-2.97,3.49-7.59-1.31-11.85,2.34l21.62,15.86c4.24,3.11,9.14,6.8,10.68,11.59.91,2.82,1.5,5.2,3.56,8.31,18.27,27.56-3.39,53.86,2.39,57.26,6.58,3.87,19.23-19.55,22.77-25.87,10.18-18.19,9.77-38.29,1.51-56.58,1.44.65,4.46.11,5.75,1.41,2.28,14.35,8.26,13.04,3.35,34.81-4.88,21.67-15.75,41.29-33.61,54.28-1.51,1.1-4.23.27-5.27-.18-4.6-1.97,1.89-17.01,3.41-20.84,5.64-14.13,4.8-29.31-3.64-42.13-4.26-6.49-8.25-14.06-14.97-18.3-12.58-7.93-26.26-15.52-32.91-28.34l27.2,6.37Z"/><path class="f" d="M1048.34,953.73c5.5,7.44,6.92,16.05,7.87,25.62,2.3,23.12-.85,44.61-7.73,65.98-8.19-4.7-16.61-10.12-22.06-17.87,6.28.81,9.63,5.76,17.04,10.57,8.37-13.99,15.82-56.15,3.58-69.46-2.38,18.22-7.72,34.16-20.17,46.31-2.56,2.49-5.76,4.41-5.77,7.8-1.28-.59-3.56-.69-4.27-2.24,13.81-13.9,23.29-31.56,25.24-51.79,1.77-4.69,2.32-9.2,1.92-13.5,1.1-.5,3-1.59,4.37-1.41Z"/><path class="f" d="M1205.74,919.42c8.26,18.29,8.67,38.39-1.51,56.58-3.53,6.32-16.18,29.74-22.77,25.87-5.78-3.4,15.87-29.71-2.39-57.26-2.06-3.11-2.66-5.49-3.56-8.31,7.22,2.99,9.47,11.56,12.92,18.42,6.03,12.01,4.58,22.28-.75,36.18,19.53-13.09,27.77-62.02,11.25-70.27-5.39-2.69-12.48-1.06-15.46-6.49,7.27,1.95,15.2,2.11,22.28,5.28Z"/><path class="b" d="M1233.92,1269.13c.8,2.36,1.37,4.76,1.84,7.2-5.41-1.1-10.82-2.43-16.35-2.69-1.15-2.38-1.16-5.15.25-7.41,2.68,3.59,10.46,3.42,14.26,2.9Z"/><path class="h" d="M1329.02,850c2.05-1.9,6.33-6.7,8.72-8.06-.04,2.59.39,5.2-.33,8.44-3.22.8-5.79-.2-8.39-.38Z"/><path class="b" d="M1341.03,1117.85c5.34,18.11,12.76,13.66,14.56,20.78.43,1.68.28,3.69,1.35,5.8,9.73,19.15,5.42,41.04-9.38,56.3-11,11.34-27,13.31-40.52,4.44-16.34-10.72-27.62-27.76-32.09-47.27-9.33-40.81-7.45-52.94.17-93.97,13.91-19.41,16.47-38.05,32.98-55.61,1.03-1.1,2.24-1.49,3.46-1.25,1.07.21,2.29,1.83,2.22,4.01-1.15,35.51,5.86,70.15,20.41,102.36,1.41,3.13,4.38,4.4,6.84,4.41Z"/><path class="f" d="M1154.29,1361.44c-3.19,4.33-9.09,6.52-14.6,4.53,13.32-9.35,24.01-20.19,28.03-35.64,1.51,27.39-2.44,16.2-13.43,31.11Z"/><path class="e" d="M1235.76,1276.33c5.3,27.82,3.63,56.64-8.38,83.03-1,2.2-2.14,3.24-4.22,3.01-1.9-.21-3.65-1.98-3.65-4.93l-.1-83.8c5.53.26,10.94,1.58,16.35,2.69Z"/><path class="d" d="M221.92,991.46c-2.89,13.03-14.79,27.71-20.17,44.28-4.52,13.95-7.6,27.93-11.72,42.1l-14.12,48.56c-7.8,26.82,13.61,68.09,12.54,79.4-2.7-.34-4.54-2.29-6.34-4.89-12.92-18.68-25.1-37.22-35.67-57.38-4.13-7.89,13.84-33.65,14.18-42.9,1.26-2.4,5.12-5.05,3.57-8.57-3.62,1.77-3.24,5.78-4.93,7.57-8.26,8.75-13.54,19.82-19.75,31.17-7.67-14.44-19.65-26.07-8.74-38.67,10.59-12.23,17.56-26,25.67-40.14,18.83-32.84,34.34-65.85,48.09-101.91l17.4,41.38ZM166.48,1089.75c0-.41-.34-.75-.75-.75s-.75.34-.75.75.34.75.75.75.75-.34.75-.75Z"/><path class="b" d="M1154.93,1225.58c10.07,4.17,32.5,18.71,41.94,25.69-1.46,2.65-.9,5.26.18,8.68,12.04,38.23,11.86,79.3-1.66,117.01-1.41,3.93-3.75,6.79-3.12,10.4-9.44,8.35-20.01,15.99-33.8,21.15,18.64-23.51,28.76-48.83,29.64-78l.77-25.5c.1-3.27-.98-5.91-3.96-6.72-1.98-.53-5.41-.03-6.78,2.72-10.66,21.38,1.76,36.31-13.9,57.94-9.97,13.77-24.93,12.85-39.11,17.48-26.98,8.81-51,24.56-77.17,35.48-11.31,4.72-17.95,15.25-23.64,16.11.23-1.26.6-2.81,1.86-4.18,22.03-24.12,39.64-30.73,64.81-49.28,7.74-5.7,16.16-9.01,25.9-9.5,8.42-6.83,17.43-11.38,24.55-18.28,1.38-1.34,4.02-3.42,5.73-4.33,7.27-3.43,9.87-12.35,6.55-19.47l-.2-4.38c-.59-12.65,2.86-26.57,1.21-40.63-2.01-17.12-6.04-33.25-9.54-50.02-.57-2.73-.21-5.06.92-6.93.38-.03.81.2,1.17.11,1.02,3.38,4.92,3.29,7.66,4.43ZM1154.29,1361.44c10.99-14.91,14.94-3.72,13.43-31.11-4.02,15.45-14.7,26.29-28.03,35.64,5.51,1.99,11.4-.2,14.6-4.53Z"/><path class="g" d="M1069.54,1301.78c2.93,7.43,8.26,14.81,16.21,18.16l10.26-5.91,12.98,23.3c1.53,2.74,5.03,3.89,5.47,6.82-.47,4.02-2.49,8.09-.68,12.9,5.85,1.8,11.87-2.81,13.01-8.24,4.87.9,9.76-3.42,14.64-2.02-7.12,6.9-16.13,11.45-24.55,18.28-9.74.49-18.16,3.8-25.9,9.5-25.17,18.55-42.78,25.16-64.81,49.28-1.25,1.37-1.63,2.92-1.86,4.18-1.63.25-2.7,2.51-4.22,2.87-4.02.97-6.96,4.75-12.47,4.89-1.35-6.5,1.39-11.73,1.9-18.31.87-11.17-1.82-24.99-13.1-30.35-4.98-2.37-12.86,6.78-12.12,11.94,4.04,28.12-1,34.62-3.46,58.75-1.52.12-3.17-.34-4.68-.11,4.07-20.29,5.83-40.6,4.16-61.27,4.44-6.73,11.74-12.33,18.72-16.46,3.91,1.99,6.38,16,13.8,14.58,3.39-.65,14.61-12.59,10.69-19.44-2.8-4.9-8.46-7.64-9.75-12.83,5.21-6.42,9.22-15.46,17.7-18.04-2.12,4.51,9.52,16.26,13.54,17.95,14.4,6.08,30.17-2.59,33.71-17.92,3.2-13.85-4.4-35.29-15.62-37.68,2.1-1.41,2.6-4.85,6.42-4.81Z"/><path class="j" d="M815.81,1453.09c-11.24,8.4-25.5,5.17-42.91,4.3l88.31-52.73c4.63-2.76,37.18-23.69,38.56-16.31.17.91-.54,2.42-1.82,3.38l-82.14,61.36Z"/><path class="h" d="M959.66,1457.9l-17.92.09c7.71-15.85,19.24-21.88,16.8-43.45,5.86-5.07,11.27-10.86,17.96-14.83,2.01,6.25,1.29,13-1.74,19.38l-12.09,25.43c-2.12,4.46-3.69,8.96-3.01,13.37Z"/><path class="j" d="M783.51,1431.9c-14.18,11.22-34.88,32.55-50.95,26.51l48.99-31.97c.92-.6,2.48.32,2.57.93.13.93.69,3.5-.61,4.53Z"/><path class="f" d="M941.75,1458c-1.94.01-4.02-.1-5.96-.08.5-2.84,2.77-4.74,4.93-7.36,21.69-26.29,9.7-28.96,17.83-36,2.44,21.57-9.09,27.6-16.8,43.45Z"/><path class="k" d="M160.63,1100.63c-.38-.43-.84-.78-1.37-1,1.69-1.79,1.31-5.8,4.93-7.57,1.56,3.52-2.31,6.17-3.57,8.57Z"/><path class="e" d="M731.17,1314.34c33.57-12.64,63.85-30.4,98.65-44.47,1.73-.7,4.88-.61,5.52.74-.97,4.31-5.1,7.76-8.66,10.72-21.35,17.8-44.69,30.47-67.69,46.25-37.03,25.41-73.63,49.76-114.73,67.78-10.06,4.41-19.81-2.45-21.78-12.15-2.15-10.59-2.39-21.03.43-31.59,5.13-19.26,7.62-38.42,11.26-57.91,1.95-10.43,2.84-19.53-2.26-29.43l-34.66-67.32-85.14-160.77c-12.2-23.03-25.89-43.23-40.78-64.29-28.75-40.66-49.46-72.68-100.86-87.19-16.41-4.63-32.12-5.71-49.13-2.55.79-6.93,5.81-12.99,12.38-14.82,26.75-7.43,55.82-5.44,80.64,8.14,36.07,19.74,66.03,45.91,92.92,76.79,35.72,41.01,67.66,83.63,95.88,130.31l94.83,156.88c3.14,5.19,7.59,7.37,13.61,6.38,31.81-5.24,58.02-15.46,89.46-16.96-3.18,3.66-7.7,3.86-12.35,5.22-24.64,7.22-48.87,14.35-72.74,23.51-3.87,1.49-3.67,7.3-2.82,9.69,1,2.8,2.39,8.27,6.76,7.87,6.6-.61,12.82-2.91,19.05-5.2l85.21-31.38c4.08-1.5,9.47-2.13,12.77.23,2.25,1.61,1.44,5.31.65,7.56s-3.85,2.72-6.92,4.02l-100.12,42.28c-4.93,2.08-9.17,6.06-10.49,10.95-.86,3.18.19,6.02,1.61,7.91s5.33,4.4,9.49,2.83ZM706.01,1294.44c0-16.95-13.74-30.7-30.69-30.7s-30.69,13.74-30.69,30.7,13.74,30.7,30.69,30.7,30.69-13.74,30.69-30.7Z"/><path class="e" d="M826.96,1108.35l-61.98-40.36-102.22-61.71-175.14-107.84c-5.88-3.62-25.02-15.72-25.76-20.14-.15-.86.75-2.5,2.26-3,12.09-3.98,21.25-11.46,30.99-20.88,10.87,16.82,23.49,30.02,39.82,40.39l72.55,46.09,210.15,135.9c13.64,8.82,32.99,15.5,23.54,28.05-2.37,3.14-9.02,6.87-14.2,3.49ZM686.87,1010.79c-5.83-10.23-15.58-17.19-26.39-18.45-7.41-.87,8.49,20.64,26.39,18.45Z"/><path class="k" d="M880.36,1036.77c-4.52,5.7-8.95.72-12.51-1.52l-54.17-34.14c-27.94-17.61-56.52-31.39-84.99-48.69l-121.96-74.15c-4.19-2.55,5.82-16.87,9.84-18.19,9.44-3.08,31.01,18.41,40.57,26.31,55.89,46.15,135.98,79.5,192.48,125.41l30.73,24.97Z"/><path class="k" d="M550.02,830.15c-2.2,7.93-6.98,13.98-9.89,20.82-1.71,4.01-6.35,5.57-9.97,2.99l-19.18-13.69c-10.92-7.79-27.49,4-35.92,11.43-6.41,5.65-15.14,8.37-23.7,4.48-30.59-13.91-59.89-29.13-89.48-45.21-7.4-4.02-13.79-10.64-14.69-19.67,29.33,7.42,54.66,19.82,79.14,34.85,7.56,4.64,17.21,3.81,25.22,6.53,13.62,4.62,37.09,3.09,39.47-12.15.33-2.08,2.87-4.02,5.28-2.78l30.11,15.44c4.07-3.01,4.43-7.99,7.44-11.21,2.76-2.96,6.75-2.64,9.88-1.35s7.76,4.18,6.27,9.53Z"/><path class="g" d="M1100.88,1193.7c2.35,3.97,7.34,5.17,10.5,9.17,3.76,4.76,19.34,26.1,23.87,21.76,1.9-1.82-.23-8.05,4.77-8.25,2.16,1.42,5.02,2.03,6.07,4.66-1.13,1.87-1.49,4.19-.92,6.93,3.5,16.78,7.53,32.9,9.54,50.02,1.65,14.05-1.8,27.98-1.21,40.63-3.9-15.21-1.18-16.21-11.41-32.27-5.76-9.04-34.51-38.69-36.31-39.94l-9.1-30.16c-2.17-7.2-5.01-13.69-6.15-20.55,1.9-1.48,1.66-4.76,5.17-4.9,2.75-.11,3.38,2.05,5.19,2.91Z"/><path class="k" d="M482.37,807.63c-4.44,2.3-11.79.23-16.4-2.19l-81.39-42.75c-22.78-11.97-27.37-4.5-43.94-15.96-9.79-6.77,5.92-19.12,11.3-27.24,4.86-1.57,10.42-.26,13.7,3.69,3.5,4.22-4.36,7.5-4.23,12.63.05,2.06,1.56,4.6,4.16,5.99,33.44,17.84,65.51,36.63,97.97,56.29,1.16.7,28.82,4.37,18.84,9.54Z"/><path class="b" d="M1031.49,1344.24c3.39-7.47,10.51-12.53,15.75-19.26,5.29-6.8,9.15-13.85,15.89-18.39,11.22,2.38,18.82,23.83,15.62,37.68-3.54,15.33-19.31,24.01-33.71,17.92-4.02-1.7-15.66-13.44-13.54-17.95Z"/><path class="k" d="M523.95,807.7c-3.78,9.33-25.77-6.84-28.9-8.68l-91.89-54.01c-1.33-1.45-.77-5.66.06-6.83,3.89-5.55,21.23,6.38,25.71,9.22l95.03,60.31Z"/><path class="h" d="M1169.89,1173.1l-30.87-15.4c-18.15-9.05-1.42-30.28-20.66-51.6-6.37-7.06-14.47-10.93-21.95-15.46-.17-8.72,4.36-8.94,5.89-15.33.11-.47.41-.99.39-1.47,9.61-6.66,23.27-21.77,38.14-23.65-14.67,28.25-24.29,42.71-11,73.21,7.55,17.31,19.89,31.15,34.4,43.25,2.45,2.04,5.06,3.69,5.66,6.46Z"/><path class="h" d="M1026.42,1027.46c-2.46-.32-3.71-3.47-5.32-4.79.02-3.39,3.22-5.31,5.77-7.8,12.45-12.14,17.79-28.09,20.17-46.31,12.24,13.31,4.8,55.47-3.58,69.46-7.42-4.8-10.77-9.76-17.04-10.57Z"/><path class="k" d="M324.76,735.55c-7.15-1.6-20.86-8.38-18.2-15.59,1.62-4.38,10.74,1.25,15.98-10.87,3.86-8.94,6.43-18.01,13.86-26.16,4.5,5.7,6.81,13.01,7,20.2-9.78,8.61-17.02,18.12-18.63,32.42Z"/><path class="k" d="M312.81,747.43c-.26,7.67-7.71,15.99-15.55,14.47-17.88-3.45-15.98-28.62-12.9-31.14,4.74-3.88,21.86,12.02,28.45,16.67Z"/><path class="f" d="M999.04,1379.98c1.87-8.01,9.95-11.8,14.74-17.7,1.28,5.2,6.94,7.93,9.75,12.83,3.92,6.85-7.3,18.8-10.69,19.44-7.42,1.42-9.9-12.59-13.8-14.58Z"/><path class="f" d="M1105.78,1246.4l-6.1-4.26c-.6-6.6-2.58-16.22-9.25-19.66-3.28-1.7-5.86,4.68-7.51,5.87-5.45-1.16-.39-26.45,7.61-32.67,1.14,6.86,3.98,13.35,6.15,20.55l9.1,30.16Z"/><path class="f" d="M1096.01,1314.03l-10.26,5.91c-7.95-3.35-13.29-10.72-16.21-18.16,1.77-1.29,2.54-5.7,5.58-5.96,8.3-.71,17.22,11.61,20.9,18.21Z"/><path class="f" d="M1140.02,1216.38c-5.01.2-2.87,6.43-4.77,8.25-4.53,4.34-20.1-17-23.87-21.76-3.16-4-8.16-5.2-10.5-9.17,13.56,6.48,26.6,14.4,39.14,22.68Z"/><path class="k" d="M571.49,1377.3c2.54,5.77-2.06,14.64-7.45,12.96l-5.69-25.26c-.43-1.93-.3-3.7.6-3.95,6.06-1.68,6.76,3.13,12.54,16.26Z"/><path class="k" d="M288.61,710.06c-.95,5.99-12.23,5-15.65,2.56-2.58-1.84-2.19-6.3-1.21-8.32s3.74-6.68,7.14-5.74,10.5,6.58,9.72,11.5Z"/><path class="h" d="M1099.68,1242.15c-7.97-.02-14.79-6.14-16.77-13.79,1.65-1.2,4.23-7.57,7.51-5.87,6.67,3.45,8.65,13.07,9.25,19.66Z"/><path class="h" d="M1126.79,1348.82c-1.14,5.43-7.16,10.03-13.01,8.24-1.8-4.81.21-8.87.68-12.9,4.49,0,8.15,3.89,12.33,4.66Z"/><path class="g" d="M1102.29,1075.31c-1.53,6.4-6.05,6.61-5.89,15.33-.89-.54-2.44.04-3.44-.29-.3-6.21,3.21-13.22,9.33-15.04Z"/><path class="g" d="M1147.16,1342.47c7.75-8.99,2.27-14.34,6.55-19.47,3.32,7.12.72,16.05-6.55,19.47Z"/><path class="g" d="M1154.93,1225.58c-2.75-1.14-6.65-1.04-7.66-4.43,3.45-.84,5.72,1.87,7.66,4.43Z"/><circle class="k" cx="165.73" cy="1089.75" r=".75"/><ellipse class="c" cx="675.32" cy="1294.44" rx="30.69" ry="30.7"/><path class="j" d="M686.87,1010.79c-17.9,2.19-33.8-19.32-26.39-18.45,10.81,1.27,20.56,8.23,26.39,18.45Z"/></svg>