<?xml version="1.0" encoding="UTF-8"?><svg id="a" xmlns="http://www.w3.org/2000/svg" viewBox="0 0 4090.67 160.62"><defs><style>.b{fill:#000502;}.c{fill:#000100;}.d{fill:#000603;}</style></defs><path class="b" d="M3666.95,20.86l-47.56,136.81c-7.15.99-13.3.68-20.75.18l-44.1-135.6.97,54.62-.04,80.9c-7.62.6-13.96.79-21.69,0l.05-155.21,34.56-.09,42.06,125.77,44.96-125.54,33.69-.16.05,155.26c-8.27.66-15.04.63-22.71,0l.51-136.95Z"/><path class="b" d="M3203.67,2.96c7.62-1.21,14.82-.71,22.98-.13l-44.66,155.06c-9.13.42-16.8.72-24.96-.18l-32.02-121.91-33.52,121.96c-8.64.75-16.3.8-24.92-.07l-41.12-154.78c8.08-1.1,15.65-.56,24.5-.27l30.47,127.5,34.49-127.41c7.46-.82,13.99-.38,22.12-.14l33.17,127.35,13.34-53.11,20.14-73.87Z"/><path class="b" d="M1830.54,157.52c-9.87,1.41-18.61.56-28.66.41l-77.13-129.58.52,129.49c-7.34.77-13.63.33-21.8.11l-.03-155.32,29.88-.31,75.91,125-.35-124.45c7.23-.86,13.77-.67,21.55-.24l.1,154.89Z"/><path class="b" d="M3921.32,157.54c-9.93,1.29-18.66.66-28.6.32l-76.78-128.88.08,128.83c-7.35.75-13.61.42-21.71.13l-.02-155.29h30.19s75.5,124.7,75.5,124.7l-.24-124.35c6.97-1.3,13.65-.64,21.48-.37l.1,154.91Z"/><path class="b" d="M1317.88,2.6l.1,155.3c-10.36.45-18.98.57-28.7-.06l-76.55-128.51-.15,128.48c-7.46.8-13.81.38-21.76.12V2.73s30.22-.19,30.22-.19l75.54,124.93-.12-124.92,21.41.04Z"/><path class="c" d="M425.53,2.58l.11,155.34c-10.37.39-18.98.57-28.7-.15L320.21,29.07l.05,128.8c-7.49.6-13.8.57-21.71-.06l.05-155.27,30.25.13,74.93,124.4c1.9-8.75.18-16.31.19-24.72l.12-99.78c7.12-.35,12.36-.47,21.44,0Z"/><path class="b" d="M4066.83,93.58l-41.57-.69c-.74-6.43-.72-12.38-.1-19.24l64.57-.09v84.28c-6.73.48-12.34.81-17.97-.19l-2.67-17.13c-11.06,14.28-26.93,19.35-44.35,20.05-30.91,1.23-57.34-15.94-66.66-45.84-12.86-41.27-2.02-97.18,44.23-111.05,34.93-10.48,81.12,1.31,88.36,43.78-7.72,1.23-15.21.56-23.46.5-4.79-18.32-20-27.68-38.06-28.66-20.9-1.13-39.17,9.21-46.4,29.39-7.16,19.98-7.34,42.2-.3,62.21,7.19,20.43,25.27,31.8,46.6,30.16,27.59-2.11,38.3-18.65,37.77-47.48Z"/><path class="d" d="M3498.34,157.63c-7.65.97-14.73.97-22.54-.14-7.38-22.68,9.2-63.34-24.3-65.88-13.34-1.01-26.62-.84-40.8-.33l-.22,66.51c-7.58.65-14.86.69-23.12.01V2.63s64.38-.2,64.38-.2c8.27-.03,16.18,1.64,23.51,4.62,15.96,6.37,24.73,21.22,24.43,38.33-.28,16.3-8.69,29.6-24.24,35.63,31.27,13.32,17,48.3,22.91,76.62ZM3475.8,46.1c-.6-33.09-44.18-22.93-65.21-24.13l.16,49.4c22.1-1.32,65.66,8.71,65.05-25.27Z"/><path class="d" d="M2088.74,157.25c-5.99-3.15-1.89-36.52-4.21-44.7-1.36-29.21-41.17-20.38-62.23-21.2l-.1,66.57c-7.79.58-14.6.29-23.08.04V2.54s63.8-.13,63.8-.13c7.54-.02,14.79,1.23,21.56,3.73,17.24,5.74,27.19,21.21,26.8,39.21-.35,16.05-8.13,29.15-23.91,35.58,30.76,13.71,17.07,49.6,22.45,77.1-6.98-.54-13.88,1.8-21.06-.76ZM2086.95,46.05c.55-32.86-43.43-22.8-64.6-24.21l-.05,49.46c21.26-1.16,66.84,8.72,64.65-25.24Z"/><path class="d" d="M943.36,158.04c-8.1-21.29,9-62.92-23.62-66.25-13.83-1.42-27.65-.95-41.84-.47l-.14,66.53c-7.78.65-14.54.39-23.09.1l-.02-155.45,63.92-.08c8.59-.01,16.87,1.59,24.35,4.89,15.73,6.47,24.2,21.16,23.88,38.04-.29,15.62-7.72,28.65-23.57,35.52,30.78,15.12,15.98,48.07,22.26,77.04l-22.12.12ZM942.93,46.13c-.46-33-43.68-22.84-64.97-24.31l-.06,49.48c22.01-1.26,65.5,8.91,65.03-25.17Z"/><path class="b" d="M2982.56,158.11c-4.98-14.11-1.29-31.54-3.5-46.36-1.99-28.31-41.28-19.48-62.33-20.66l-.35,66.8c-7.88.4-14.76.72-22.65-.18l-.03-155.14,64.59-.12c7.78-.01,15.26,1.46,22.21,4.28,16.5,6.07,25.66,21.26,25.36,38.64-.28,16.22-8.53,29.35-24.1,35.65,31.31,13.26,16.78,49.94,22.78,76.79-7.38.77-13.4.33-21.97.31ZM2981.63,47.53c1.44-34.51-42.58-24.35-64.91-25.67l-.2,49.4c21.16-1.15,65.51,8.63,65.11-23.73Z"/><path class="d" d="M1155.13,86.54l-76.56.27.13,51.57,84.1.14c-.6,6.84-1.27,12.83-2.9,19.61l-104.15.03V2.44s103.06.08,103.06.08c.51,7.01.88,13.22-.26,19.5l-79.93.27.02,44.42,76.66.37c.14,7.09.43,12.48-.17,19.45Z"/><path class="b" d="M2520.84,86.46l-76.53.44.03,51.4,84.27.35c-.54,6.81-1.38,12.52-2.84,19.42l-104.13.13-.14-155.8,103-.03c.77,6.43.42,12.24.2,19.62l-80.15.23-.21,44.41,76.46.4c.66,6.47.63,12.12.03,19.42Z"/><path class="b" d="M2857.89,86.46l-76.26.28-.42,51.43,84.12.38c-.1,7.03-1.02,13.15-2.71,19.63l-103.95-.05.04-155.75,102.82.06c1.02,6.45.73,12.2.24,19.41l-80.47.59.03,44.19,76.34.35c.64,6.19.29,10.88.22,19.48Z"/><path class="b" d="M1668.47,86.44l-76.27.3-.29,51.6,84.06.2c-.42,7.09-1.23,13.13-2.82,19.62h-104.14s.05-155.78.05-155.78l102.86.06c.76,6.9.75,12.88-.05,19.76l-79.63-.03-.38,44.5,76.33.25c.7,6.01.31,10.72.27,19.5Z"/><path class="b" d="M118.03,112.14c.74,19.72-9.34,35.89-27.39,42.84-17.78,6.85-37.52,7.09-55.99,1.71C15.06,150.97,1.88,134.19,0,114.57c8.53-.4,15.36-.45,23.28,0,2.96,10.63,8.65,20.02,19.4,23.99,12.23,4.53,26.39,4.73,38.36-.4,9.73-4.16,13.12-13.3,12.85-22.97-.9-32.22-56.9-22.07-80.14-48.56-8.98-10.24-9.84-24.59-5.52-38.13C17.52-.61,60.18-5.08,86.11,5.04c15.96,6.23,26.47,20.2,28.07,37.3-7.87.9-15.34.83-23.52.05-2.16-9.12-6.85-16.99-15.57-20.59-14.05-5.81-39.59-4.69-44.09,11.84-9.17,33.72,36.51,26.6,67.62,45.46,11.95,7.25,18.84,18.08,19.4,33.03Z"/><path class="b" d="M234.8,114.03l-60.94-.41-16.05,44.19c-7.64.54-14.54.78-23.04-.12L189.39,2.85c9.53-1,18.45-.45,28.97-.37l57.22,155.21c-8.71,1.01-16.05.47-24.58.28l-16.19-43.93ZM228.43,93.17l-25.1-70.83-23.72,71.41,48.82-.59Z"/><path class="b" d="M3322.97,114.01l-60.89-.36-16.1,44.16c-7.66.49-14.56.86-22.98-.14l54.71-155.02c10.27-.47,19.23-.66,29,.11l57.06,154.9c-8.81,1.06-16.18.53-24.6.3l-16.2-43.95ZM3316.83,93.23l-25.33-70.88-23.71,71.37,49.04-.49Z"/><path class="b" d="M725.56,114.02l-60.93-.38-16.1,44.21c-7.83.44-14.87.95-22.93-.37L680.34,2.53c10.13-.17,19.07-.62,28.96.24l57.04,154.91c-9.03.99-16.35.55-24.59.25l-16.19-43.91ZM719.36,93.28l-25.24-71.06-23.86,71.46,49.1-.4Z"/><path class="b" d="M2231.59,113.85l-60.89-.06-15.75,43.86c-7.47.92-14.87.83-23.19.04l54.73-155.01c9.92-.64,18.82-.47,28.93-.04l56.99,154.48c-7.79,2.26-15.36.59-24.2,1.02l-16.62-44.29ZM2225.61,93.25l-25.32-70.86-23.77,71.25,49.09-.39Z"/><path class="b" d="M1478.66,141.21c18.59-.24,31.82-10.97,37.32-27.72,8.02-.49,15.18-.68,23.52.11-4.34,18.6-16.53,34.92-35.16,41.84-34.61,12.85-76.41,1.66-91.37-36.24-16.03-40.61-5.79-99.83,40.08-115.14,34.57-11.54,79.52,1.12,86.52,43.37-7.77,1.09-15.29.64-23.46.28-4.65-17.08-17.99-27.1-35.1-28.34-19.31-1.4-36.22,7.94-43.96,26.22-9.25,21.87-9.37,47.27,0,69.16,7.29,17.05,22.59,26.71,41.59,26.46Z"/><path class="b" d="M2676,104.13l36.43-101.53c8.34-.4,15.47-.52,23.96.18l-58,155.28-27.81-.18-56.02-155.05c8.9-.93,16.23-.54,24.83-.22l28.84,82.69,16.76,51.97,11-33.14Z"/><path class="d" d="M1927.85,157.52c-7.77,1.5-14.69.47-23.23.42l-.19-135.53-49.35-.41c-1.1-6.18-.57-12.01-.4-19.52l122.68-.04c.22,7.52.53,13.5-.21,19.6l-49.32.48.02,135.01Z"/><path class="b" d="M587.22,157.5c-7.79,1.39-14.75.75-23.04.3l-.09-135.3-49.46-.58c-.7-6.52-.73-12.58-.01-19.46l122.03-.08c1.29,6.47.77,12.79.27,19.54l-49.52.35-.18,135.24Z"/><path class="c" d="M2399.06,138.42c1.33,6.02-.97,12.22-2.27,19.66l-100.48.09-.02-155.21c7.66-1.27,14.79-.54,23.08-.41l.1,135.79,79.59.07Z"/><rect class="d" x="467.22" y="2.34" width="23.38" height="155.86"/><rect class="d" x="790.07" y="2.34" width="23.35" height="155.95"/><rect class="d" x="3729.69" y="2.34" width="23.35" height="155.95"/></svg>