<?xml version="1.0" encoding="UTF-8"?><svg id="a" xmlns="http://www.w3.org/2000/svg" viewBox="0 0 4095.07 4207.26"><defs><style>.b{fill:#e2b8a6;}.c{fill:#020202;}.d{fill:#0d679c;}.e{fill:#fbfbfb;}.f{fill:#e96348;}.g{fill:#000502;}.h{fill:#ef9277;}.i{fill:#e02721;}.j{fill:#000100;}.k{fill:#fefefe;}.l{fill:#000603;}.m{fill:#f7f7f7;}</style></defs><path class="g" d="M3669.15,4067.49l-47.56,136.81c-7.15.99-13.3.68-20.75.18l-44.1-135.6.97,54.62-.04,80.9c-7.62.6-13.96.79-21.69,0l.05-155.21,34.56-.09,42.06,125.77,44.96-125.54,33.69-.16.05,155.26c-8.27.66-15.04.63-22.71,0l.51-136.95Z"/><path class="g" d="M3205.87,4049.59c7.62-1.21,14.82-.71,22.98-.13l-44.66,155.06c-9.13.42-16.8.72-24.96-.18l-32.02-121.91-33.52,121.96c-8.64.75-16.3.8-24.92-.07l-41.12-154.78c8.08-1.1,15.65-.56,24.5-.27l30.47,127.5,34.49-127.41c7.46-.82,13.99-.38,22.12-.14l33.17,127.35,13.34-53.11,20.14-73.87Z"/><path class="g" d="M1832.74,4204.15c-9.87,1.41-18.61.56-28.66.41l-77.13-129.58.52,129.49c-7.34.77-13.63.33-21.8.11l-.03-155.32,29.88-.31,75.91,125-.35-124.45c7.23-.86,13.77-.67,21.55-.24l.1,154.89Z"/><path class="g" d="M3923.52,4204.17c-9.93,1.29-18.66.66-28.6.32l-76.78-128.88.08,128.83c-7.35.75-13.61.42-21.71.13l-.02-155.29h30.19s75.5,124.7,75.5,124.7l-.24-124.35c6.97-1.3,13.65-.64,21.48-.37l.1,154.91Z"/><path class="g" d="M1320.07,4049.23l.1,155.3c-10.36.45-18.98.57-28.7-.06l-76.55-128.51-.15,128.48c-7.46.8-13.81.38-21.76.12v-155.2s30.22-.19,30.22-.19l75.54,124.93-.12-124.92,21.41.04Z"/><path class="j" d="M427.73,4049.22l.11,155.34c-10.37.39-18.98.57-28.7-.15l-76.73-128.71.05,128.8c-7.49.6-13.8.57-21.71-.06l.05-155.27,30.25.13,74.93,124.4c1.9-8.75.18-16.31.19-24.72l.12-99.78c7.12-.35,12.36-.47,21.44,0Z"/><path class="g" d="M4069.03,4140.22l-41.57-.69c-.74-6.43-.72-12.38-.1-19.24l64.57-.09v84.28c-6.73.48-12.34.81-17.97-.19l-2.67-17.13c-11.06,14.28-26.93,19.35-44.35,20.05-30.91,1.23-57.34-15.94-66.66-45.84-12.86-41.27-2.02-97.18,44.23-111.05,34.93-10.48,81.12,1.31,88.36,43.78-7.72,1.23-15.21.56-23.46.5-4.79-18.32-20-27.68-38.06-28.66-20.9-1.13-39.17,9.21-46.4,29.39-7.16,19.98-7.34,42.2-.3,62.21,7.19,20.43,25.27,31.8,46.6,30.16,27.59-2.11,38.3-18.65,37.77-47.48Z"/><path class="l" d="M3500.54,4204.27c-7.65.97-14.73.97-22.54-.14-7.38-22.68,9.2-63.34-24.3-65.88-13.34-1.01-26.62-.84-40.8-.33l-.22,66.51c-7.58.65-14.86.69-23.12.01v-155.16s64.38-.2,64.38-.2c8.27-.03,16.18,1.64,23.51,4.62,15.96,6.37,24.73,21.22,24.43,38.33-.28,16.3-8.69,29.6-24.24,35.63,31.27,13.32,17,48.3,22.91,76.62ZM3477.99,4092.74c-.6-33.09-44.18-22.93-65.21-24.13l.16,49.4c22.1-1.32,65.66,8.71,65.05-25.27Z"/><path class="l" d="M2090.94,4203.89c-5.99-3.15-1.89-36.52-4.21-44.7-1.36-29.21-41.17-20.38-62.23-21.2l-.1,66.57c-7.79.58-14.6.29-23.08.04v-155.43s63.8-.13,63.8-.13c7.54-.02,14.79,1.23,21.56,3.73,17.24,5.74,27.19,21.21,26.8,39.21-.35,16.05-8.13,29.15-23.91,35.58,30.76,13.71,17.07,49.6,22.45,77.1-6.98-.54-13.88,1.8-21.06-.76ZM2089.14,4092.69c.55-32.86-43.43-22.8-64.6-24.21l-.05,49.46c21.26-1.16,66.84,8.72,64.65-25.24Z"/><path class="l" d="M945.56,4204.68c-8.1-21.29,9-62.92-23.62-66.25-13.83-1.42-27.65-.95-41.84-.47l-.14,66.53c-7.78.65-14.54.39-23.09.1l-.02-155.45,63.92-.08c8.59-.01,16.87,1.59,24.35,4.89,15.73,6.47,24.2,21.16,23.88,38.04-.29,15.62-7.72,28.65-23.57,35.52,30.78,15.12,15.98,48.07,22.26,77.04l-22.12.12ZM945.12,4092.76c-.46-33-43.68-22.84-64.97-24.31l-.06,49.48c22.01-1.26,65.5,8.91,65.03-25.17Z"/><path class="g" d="M2984.76,4204.74c-4.98-14.11-1.29-31.54-3.5-46.36-1.99-28.31-41.28-19.48-62.33-20.66l-.35,66.8c-7.88.4-14.76.72-22.65-.18l-.03-155.14,64.59-.12c7.78-.01,15.26,1.46,22.21,4.28,16.5,6.07,25.66,21.26,25.36,38.64-.28,16.22-8.53,29.35-24.1,35.65,31.31,13.26,16.78,49.94,22.78,76.79-7.38.77-13.4.33-21.97.31ZM2983.83,4094.17c1.44-34.51-42.58-24.35-64.91-25.67l-.2,49.4c21.16-1.15,65.51,8.63,65.11-23.73Z"/><path class="l" d="M1157.32,4133.17l-76.56.27.13,51.57,84.1.14c-.6,6.84-1.27,12.83-2.9,19.61l-104.15.03v-155.72s103.06.08,103.06.08c.51,7.01.88,13.22-.26,19.5l-79.93.27.02,44.42,76.66.37c.14,7.09.43,12.48-.17,19.45Z"/><path class="g" d="M2523.04,4133.09l-76.53.44.03,51.4,84.27.35c-.54,6.81-1.38,12.52-2.84,19.42l-104.13.13-.14-155.8,103-.03c.77,6.43.42,12.24.2,19.62l-80.15.23-.21,44.41,76.46.4c.66,6.47.63,12.12.03,19.42Z"/><path class="g" d="M2860.09,4133.09l-76.26.28-.42,51.43,84.12.38c-.1,7.03-1.02,13.15-2.71,19.63l-103.95-.05.04-155.75,102.82.06c1.02,6.45.73,12.2.24,19.41l-80.47.59.03,44.19,76.34.35c.64,6.19.29,10.88.22,19.48Z"/><path class="g" d="M1670.67,4133.07l-76.27.3-.29,51.6,84.06.2c-.42,7.09-1.23,13.13-2.82,19.62h-104.14s.05-155.78.05-155.78l102.86.06c.76,6.9.75,12.88-.05,19.76l-79.63-.03-.38,44.5,76.33.25c.7,6.01.31,10.72.27,19.5Z"/><path class="g" d="M120.23,4158.77c.74,19.72-9.34,35.89-27.39,42.84-17.78,6.85-37.52,7.09-55.99,1.71-19.6-5.71-32.77-22.5-34.66-42.11,8.53-.4,15.36-.45,23.28,0,2.96,10.63,8.65,20.02,19.4,23.99,12.23,4.53,26.39,4.73,38.36-.4,9.73-4.16,13.12-13.3,12.85-22.97-.9-32.22-56.9-22.07-80.14-48.56-8.98-10.24-9.84-24.59-5.52-38.13,9.29-29.12,51.95-33.59,77.88-23.47,15.96,6.23,26.47,20.2,28.07,37.3-7.87.9-15.34.83-23.52.05-2.16-9.12-6.85-16.99-15.57-20.59-14.05-5.81-39.59-4.69-44.09,11.84-9.17,33.72,36.51,26.6,67.62,45.46,11.95,7.25,18.84,18.08,19.4,33.03Z"/><path class="g" d="M237,4160.67l-60.94-.41-16.05,44.19c-7.64.54-14.54.78-23.04-.12l54.62-154.85c9.53-1,18.45-.45,28.97-.37l57.22,155.21c-8.71,1.01-16.05.47-24.58.28l-16.19-43.93ZM230.63,4139.8l-25.1-70.83-23.72,71.41,48.82-.59Z"/><path class="g" d="M3325.16,4160.65l-60.89-.36-16.1,44.16c-7.66.49-14.56.86-22.98-.14l54.71-155.02c10.27-.47,19.23-.66,29,.11l57.06,154.9c-8.81,1.06-16.18.53-24.6.3l-16.2-43.95ZM3319.03,4139.87l-25.33-70.88-23.71,71.37,49.04-.49Z"/><path class="g" d="M727.76,4160.65l-60.93-.38-16.1,44.21c-7.83.44-14.87.95-22.93-.37l54.74-154.95c10.13-.17,19.07-.62,28.96.24l57.04,154.91c-9.03.99-16.35.55-24.59.25l-16.19-43.91ZM721.55,4139.92l-25.24-71.06-23.86,71.46,49.1-.4Z"/><path class="g" d="M2233.79,4160.49l-60.89-.06-15.75,43.86c-7.47.92-14.87.83-23.19.04l54.73-155.01c9.92-.64,18.82-.47,28.93-.04l56.99,154.48c-7.79,2.26-15.36.59-24.2,1.02l-16.62-44.29ZM2227.81,4139.88l-25.32-70.86-23.77,71.25,49.09-.39Z"/><path class="g" d="M1480.85,4187.85c18.59-.24,31.82-10.97,37.32-27.72,8.02-.49,15.18-.68,23.52.11-4.34,18.6-16.53,34.92-35.16,41.84-34.61,12.85-76.41,1.66-91.37-36.24-16.03-40.61-5.79-99.83,40.08-115.14,34.57-11.54,79.52,1.12,86.52,43.37-7.77,1.09-15.29.64-23.46.28-4.65-17.08-17.99-27.1-35.1-28.34-19.31-1.4-36.22,7.94-43.96,26.22-9.25,21.87-9.37,47.27,0,69.16,7.29,17.05,22.59,26.71,41.59,26.46Z"/><path class="g" d="M2678.2,4150.77l36.43-101.53c8.34-.4,15.47-.52,23.96.18l-58,155.28-27.81-.18-56.02-155.05c8.9-.93,16.23-.54,24.83-.22l28.84,82.69,16.76,51.97,11-33.14Z"/><path class="l" d="M1930.05,4204.15c-7.77,1.5-14.69.47-23.23.42l-.19-135.53-49.35-.41c-1.1-6.18-.57-12.01-.4-19.52l122.68-.04c.22,7.52.53,13.5-.21,19.6l-49.32.48.02,135.01Z"/><path class="g" d="M589.42,4204.13c-7.79,1.39-14.75.75-23.04.3l-.09-135.3-49.46-.58c-.7-6.52-.73-12.58-.01-19.46l122.03-.08c1.29,6.47.77,12.79.27,19.54l-49.52.35-.18,135.24Z"/><path class="j" d="M2401.26,4185.05c1.33,6.02-.97,12.22-2.27,19.66l-100.48.09-.02-155.21c7.66-1.27,14.79-.54,23.08-.41l.1,135.79,79.59.07Z"/><rect class="l" x="469.42" y="4048.97" width="23.38" height="155.86"/><rect class="l" x="792.27" y="4048.97" width="23.35" height="155.95"/><rect class="l" x="3731.89" y="4048.97" width="23.35" height="155.95"/><rect class="j" x="2417.25" y="3219.3" width="211.53" height="718.57"/><polygon class="j" points="3854.52 3937.89 3770.39 3759.57 3674.99 3552.26 3628.34 3442.16 3632.02 3535.58 3634.4 3678.13 3634.66 3937.87 3441.64 3937.69 3441.7 3219.32 3693.91 3219.28 3788.46 3417.87 3869.81 3592.28 3911.4 3690.19 3905.45 3565.45 3903.26 3479.78 3902.99 3219.3 4095.07 3219.37 4095.04 3937.69 3854.52 3937.89"/><polygon class="j" points="3307.81 3647.29 2980.6 3647.25 2980.31 3781.6 3345.82 3781.56 3322.54 3937.84 2777.65 3937.74 2777.59 3219.49 3321.7 3219.26 3321.77 3375.53 2980.39 3375.49 2980.32 3490.99 3307.79 3490.97 3307.81 3647.29"/><rect class="j" x="2861.6" y="3009.06" width="155.25" height="147.31"/><rect class="j" x="3085.77" y="3009.06" width="155.15" height="147.28"/><path class="j" d="M600.15,3362.68l-43.56,207.08-87.21,368.14-168.93-.14-70.59-340.34-45.62-234.8c-2.1-1.8-4.06-1.81-6.17-.44,5.98,94.04,8.04,187.58,9.35,282.23l.24,293.35H0s.06-718.23.06-718.23l303.4-.3c24.05,100.63,45.13,200.13,64.41,301.28l30.2,163.37,33.92-161.46,75.98-303.19,294.94.31.04,718.18-202.83.1.16-271.85,5.33-301.22c-.11-2.23-.69-2.78-1.25-3.18-.53-.38-3.76-.96-4.2,1.09Z"/><path d="M2288.65,3871.47c.33,23.01,3.06,44.09,7.49,66.34h-200.53c-16.29-43.91-15.31-118.58-15.24-166.73.06-39.46-.97-79.77-43.69-95.53-17.13-6.39-35.06-8.8-53.66-8.82l-84.47-.1v271.04s-204.69.08-204.69.08l.1-718.4,368.71.19c30.93.02,59.66,5.12,88.92,12.7,25.62,7.6,48.84,17.72,70.72,32.79,68.26,47.02,92.01,127.08,72.92,206.04-12.91,53.37-49.04,95.56-100.95,117.54,48.71,18.94,73.22,59.47,84.95,108.65,5.71,24.48,7.6,48.59,7.97,73.89l1.46,100.32ZM2089.61,3423.1c-4.28-22.11-18.59-39.06-39.28-47.62-15.49-6.4-31.7-9.17-49-9.19l-102.77-.12v153.24s107.26-.16,107.26-.16c16.49-.02,31.84-3.19,46.58-9.27,35.06-14.34,43.75-53.13,37.21-86.88Z"/><path d="M1354.7,3798.17l-225.33-.17-41.77,139.84-205.38-.15,227.19-718.44,272.89.1,236.09,718.32-220.14.24-43.55-139.73ZM1317.53,3641.83l-38.78-133.7-40.04-150.86-31.31,125.12-43.26,159.57,153.39-.13Z"/><path class="k" d="M2108.66,0c.22,2.58,4.77,3.54,7.93,3.14,16.95-2.14,30.43.87,47.24,2.19,360.11,28.27,695.57,193.2,940.48,457.77,524.76,566.88,507.24,1449.75-40.7,1995.58-240.25,239.33-557.59,387.9-896.84,415.22-12.73,1.03-22.08,2.37-33.23,2.37h-168.52c-13.02,0-24.15-1.07-38.75-2.25-686.61-55.82-1241.09-597.5-1312.08-1282.2-1.07-10.33-.03-18.64-5.62-25.21v-254.19c5.01-5.68,4.53-13.06,5.47-22.41,30.93-307.25,162.51-595.7,369.88-822.1C1245.37,182.44,1602.26,20.31,1984.35,0h124.32ZM1017.34,1826.26l-32.05-76.22c-25.33,66.43-53.88,127.23-88.57,187.72-14.94,26.04-27.77,51.4-47.28,73.93-20.09,23.2,1.98,44.62,16.1,71.22,11.44-20.91,21.17-41.29,36.38-57.41.97.41,1.82,1.05,2.52,1.84-.63,17.04-33.73,64.5-26.12,79.02,19.47,37.14,41.91,71.3,65.7,105.7,3.31,4.79,6.72,8.39,11.68,9.01-.63,6.61,3.92,12.15,8.52,18.56,66.03,92.03,144.51,172.59,232.01,245.11,93.9,77.82,197.23,138.82,307.19,190.39,60.06,28.17,62.01-9.02,118.98-14.35,68.53-6.42,131.14-27.27,191.59-59.19,42.5-22.44,84.02-41.26,125.25-66.02,41.69-25.04,78.03-54.39,118.65-80.72l81.89-53.09c31.53-20.44,52.68-52.73,52.16-92.24-.81-61.13-9.51-121.88-27.44-179.9-7.27-23.54-4.77-43,11.75-61.61,33.93-38.23,63.32-79.75,93.85-120.99,6.99-9.45,14.72-16.63,24.66-22.77,17.76-10.98,34.42-23.38,52.84-33.3,10.79-5.82,21.66,4.26,24.86,12.61,4.3,11.22-.6,20.09-10.56,27.24-46.12,33.1-85.78,109.15-63.51,103.11,2.12-.58,6.64-.33,9.3-2.92l65.74-64.14c17.95-17.51,38.95-30.74,62.2-39.74,16.55-6.4,33.12-1.01,42.76,13.33,4.4,6.55,3.76,13.93-2.66,19.01l-76.57,60.54c-10.04,7.94-48.07,37.96-32.7,49.92,8.2,6.38,31.08-11.61,41.18-19.17l98.11-73.36c27.89-20.86,62.95,28.94,63.96,55.28-39.41,27.84-75.65,56.27-109.86,89.61-3.07,2.99-6.91,11-3.54,14.27,7.23,7.01,19.46,3.92,26.68-2.2,29.4-24.96,63.11-41.56,94.46-63.24,16.93-11.7,33.39-16.53,50.16-.75,8.36,7.87,15.23,16.64,15.14,28.28-.09,11.35-3.05,23.01-13.12,30.55l-31.55,23.62c-25.33,18.97-41.53,47.3-44.71,79.57-8.68,88,34.54,71.83-64.97,189.13-12.13,14.3-27.12,24.13-45.03,29.52l-55.48,16.71c-5.38,1.62-8.75,4.19-8.14,9.2.49,4.06,2.79,8.65,8.46,9l34.63,2.15c-.28,4.75-3.55,9.01-7.75,12.68l-79.3,69.31c-46.15,40.33-68.02,74.26-114.48,106.29-2.56,1.76-2.29,5.96-1.54,7.72.46,1.09,2.5,2.14,5.08,2.12l107.42-.75c3.57-.02,7.41.17,10.98.15l33.01-.17c10.13-.05,20.29,1.2,30.39-.35,2.78-.43,5.81.42,8.61.2,4.72-.36,13.46,3.41,18.4-.85,15-12.93,29.52-25.09,45.68-36.73,4.55-3.28,7.82-7.31,8.21-11.99,2.81-.68,4.78-4.84,7.78-5.29,10.48-1.58,22.71-20.99,43.54-29.68,48.2-20.11,92.46-49.12,142.15-65.35,26.11-8.53,53.68-6.84,72.04-32.2,28.86-39.86,5.98-67.35,25.61-106.73,2.53-5.08,8.85-6,12.49-5.02,5.49,1.48,7.48,6.35,7.3,12.38l-1.42,46.97c-1.62,53.74-20.26,100.36-54.6,143.67,25.39-9.51,44.87-23.57,62.25-38.96,5.67-4.26,16.98-5.82,19.78-14.01,16.03-5,28.77-19.99,43.4-29.98,6.06-4.14,12.09-8.17,14.75-13.48,9.29-3.57,57.28-39.05,55.28-49.49,14.85-2.46-9.41-25.05,19.58-46.91,13.79-10.4,29.51-20.1,40.33-33.78,13.54-17.12,29.71-29.1,46.05-42.95,9.43-7.99,15.39-12.96,28.02-16.87,18.72-5.8,34.2-24.89,39.94-42.28,9.17.21,51.54-64.97,61.06-78.52,12.01-17.12,33.24-49.49,40.41-67.94,1.95-5.03,7.24-14.64,10.93-18.49,5.39-5.64,11.03-17.07,14.89-25.12l29.51-61.54c9.51-19.83,15.57-39.13,25.01-58,24.18-48.35,40.96-101.42,55.06-154.29,1.21-4.53,1.49-9.89,2.95-14.21,6.43-19.01,11.58-38.51,13.84-58.43.85-7.44,1.71-12.06-6.26-18.56-9.09-7.41-18.15-16.78-26.68-25.53l-47.71-48.86c-6.94-7.11-9.87-17.7-15.8-25.83-12.83-17.59-21.01-37.26-23.75-59.31-15.5-124.7,66.79-154.76,46.92-170.4-8.75-6.89-19.45.29-27.8,4.52-26.7,13.51-52.02,27.35-72.15,49.26-4.81,5.24-9.23,9.5-9.03,15.97-3.98,2.89-8.79,3.92-13.18,9.29-26.35,32.18-39.84,75.41-30.68,115.37.55,2.41,1.06,5,1.13,7.48.39,13.12-5.85,22.09-17.72,28.78-6.78,3.82-1.43,15.54-.74,21.52,3.3,28.67-2.86,55.14-7.91,82.96-2.25,12.38-7.79,56.6-21.34,60.68-3.63,1.09-11.86,1.39-13.18-3.78-17.36-68.11-13.07-115.05-1-183.92,2.56-14.59,4.19-28.61.4-41.58,9.89-9.86,22.81-19.27,34.9-28.17,50.66-37.31,57.22-94.56,55.76-154.43-2.08-85.24-1.49-168.38-.55-253.75l1.2-108.05c.47-42.07,3.66-82.16-.4-124.37-2.42-25.21-6.76-49.27-7.77-74.49-1.69-42.26-10.09-82.12-26.77-120.24-6.34-14.48-18.02-14.4-28.91-21.91-87.38-60.28-103.04-16.48-124.48-69.28-8.7-21.43-23.78-39.85-36.79-58.55-8.82-12.68-22.68-20.15-36.9-23.92-50.8-13.45-38.8-40.92-73.94-30.07-58.39,18.03-59.76-31.37-95.99-13.72-24.19,11.78-41.88-13-77.29-7.83-21.91,3.2-5.98-36.58-29.19-47.98-33.74-16.57-67.93-28.89-102.86-43.32-69.7-28.79-141.04-40.48-215.91-46.32-40.37-3.15-78.67-4.58-115.08,15.1-47.78,25.83-19.58,55.49-45.26,94.45l-81.98-93.84c-19.62-22.46-43.73,5.09-54.57,2.01,3.93-12.82,31.48-16.54,24.78-29.51-10.04-19.45-72.26,27.22-87.55,21.81-.04-2.86,2.98-5.4,5.82-7.28l33.32-22.14c3.79-2.52,4.92-6.59,2.62-9.61-7.96-10.45-109.48,47.49-132.14,47.25,19.79-26.26,122.29-78.93,124.22-94.93,1.78-14.77-31.62-43.88-48.1-49.89-11.23-4.09-21.86,1.07-33.24,3.51l-202.79,43.44c-31.85,6.82-60.53,17.34-89.79,30.84-10.67,4.92-9.54-12.44-18.06-14.91-13.06-3.79-48.15,14.2-55.62,27.14-12.04,20.9,5.16,19.26-51.92,62.09-33.58,25.19-65.88,50.97-92.43,84.05-35.35,44.05-64.12,90.24-91.8,139.59-28.83,51.4-37.3,110.41-23.13,167.69,26.06,105.38,109,206.9,115.12,243.79,10.35,62.35,29.03,97.7,45.48,159.1,4.81,17.97,7.3,35.79,6,54.13-2.5,35.08-40.21,8.87-63.61,55.07-9.73,19.21-20.79,36.87-28.54,57.09-1.58,4.11-5.17,6.86-7.97,7.87-7.96,2.89-83.87-22.82-82.41-103.6.16-8.83-9.05-15.15-14.6-17.45-6.99-2.89-15.86,2.06-22.85,7.78l-4.04-29.04c-1.63-11.73-26.41-14.37-34.91-4.73-10.91,12.37-20.22,23.59-32.95,33.79l-54.95,44.05c-47.95,38.44-56.22,103.36-28.95,157.23,11.33,22.39,28.02,35.01,53.14,38.5,60.36,8.38,115.18,60.64,96.97,79.94-18.93,20.07-38.52,38.09-50.78,62.99-9.36,19.01-22.14,34.11-38.78,46.96-40.2,31.04-42.6,92.47-58.33,126.86-12.59,27.54-34.75,48.74-56.06,68.19ZM2111.26,2676.58l151.3-113.02c2.35-1.76,3.66-4.55,3.35-6.22-2.55-13.61-62.5,24.95-71.03,30.03l-162.67,97.13c32.07,1.59,58.34,7.54,79.05-7.93ZM2692.15,2624.33c15.84,3.32,1.99-47.61-10.43-51.46l-5.92-9.87c-2.04-3.4-6.91-2.61-9.08-.33-9.37,9.88,7.86,38.81-13.47,80.04,16.82-1.79,27.36-9.87,38.89-18.38ZM2051.77,2637.54c2.39-1.89,1.36-6.62,1.12-8.34-.16-1.14-3.02-2.83-4.73-1.72l-90.24,58.88c29.6,11.12,67.74-28.16,93.85-48.83Z"/><path class="e" d="M1565.74,1256.26c-15.11,11.89-21.74,27.24-38.29,33.25-6.43,2.33-13.97-8.37-16.63-13.99-15.68-33.17-12.77-68.49-3.17-102.98,23.13-83.11,81.06-69.01,87.84-163.67,40.22,32.01,88.04,106.66,140.67,77.47,24.51-13.59,36.4-45.99,20.07-50.36-9.64-2.58-25.81,30.52-47.22,18.05-38.07-22.18-106.16-76.46-98.09-125.17,13.24-6.69,25.09-10.81,38.66-14.61-.07,9.44-19.28,22.8-9.16,30.04,4.54,3.25,17.58-11.65,24.87-2.23,8.6,11.1-19.16,23.5-10.74,43.53,4.2,10,14.32,14.05,25.36,15.89,20.88,3.48,41,11.75,62.62,4.5-3.85-23.64-15.54-45.14-28.97-63.23-10.11-13.63-7.96-23.7-1.34-38.95,4.53-10.44,8.45-29.53,23.92-29.46,37.19.19,58.18,33.13,60.63,67.78,2.76,38.96,6.88,77.01-9.15,113.44-39.5,89.75-33.92,145.88-101.66,221.54-3.84,4.28,2.71,10.67,5.72,12.44,12.58,7.41,30.32-15.35,47.32-22.66,1.73,1.3,1.21,5.65-.41,7.92l-37.81,53.02c-2.37,3.33-2.74,7.39-1.04,10.44,2.49,4.48,11.97,4.44,16.58,6.38,5.59,2.35-2.05,15.59,5.17,19.82,9.37,5.49,16.26-5.87,26.17-4.88,11.58,1.16,27.03,41.45,50.75,50.79l61.17,24.1c21.56,8.5,4.82,46.25,21.19,99.28.64,2.06-.49,4.06-.75,5-.39,1.41-3.62,4.22-6.49,3.45-36.25-9.76-71.41-22-101.28-45.61-26.86-21.23-50.92-47.93-66.79-78.08-8.36-15.88-15.18-28.24-35.21-30.28-29.85-3.03-58.58-14.65-82.7-32.58-36.23-26.92-23.36-61.39-21.8-99.4Z"/><path class="e" d="M2531.55,1759.36c.74,7.92-.27,16.24-3.53,24.87-3.59,37.26-21.05,69.8-46.49,95.4-19.38-3.55-40.33-7.31-60.7.65-26.29-17.67-37.63-49.45-79.6-37.69-52.56,14.74-57.09,47.13-83.42,27.63l-66.13-48.98c16.06-4.35,30.49.77,44.43,5.23,60.82,19.44,112.39,5.37,165.99-26.95,50.08-30.19,73.96-9.73,114.13-34.82,5.2-3.25,10.27-5.31,15.31-5.34Z"/><path class="c" d="M1953.41,330.88c-2.97-1.05-8.83,2.85-9.41,7.31,3.28,2.41,9.48-2.69,9.41-7.31,15.29,5.41,77.51-41.26,87.55-21.81,6.69,12.97-20.85,16.68-24.78,29.51,10.84,3.09,34.94-24.47,54.57-2.01l81.98,93.84c25.68-38.96-2.52-68.62,45.26-94.45,36.41-19.68,74.72-18.26,115.08-15.1,74.86,5.85,146.2,17.53,215.91,46.32,34.93,14.43,69.12,26.75,102.86,43.32,23.21,11.4,7.29,51.18,29.19,47.98,35.41-5.18,53.1,19.61,77.29,7.83,36.23-17.64,37.6,31.76,95.99,13.72,35.14-10.85,23.14,16.62,73.94,30.07,14.22,3.77,28.08,11.24,36.9,23.92,13.01,18.7,28.08,37.12,36.79,58.55,21.44,52.8,37.1,8.99,124.48,69.28,10.89,7.51,22.57,7.43,28.91,21.91,16.69,38.12,25.08,77.98,26.77,120.24,1.01,25.22,5.35,49.27,7.77,74.49,4.06,42.22.86,82.31.4,124.37l-1.2,108.05c-.95,85.37-1.53,168.51.55,253.75,1.46,59.87-5.1,117.12-55.76,154.43-12.09,8.9-25.01,18.31-34.9,28.17l-6.29,3.58c-4.4,2.5-12.29,11.33-16.06,14.84-15.08,6.41-30.47,27.24-42.24,37.03-21.38,17.78-48.06,34.98-63.77,58.28-7.54,1.45-10.91,12.2-15.44,16.02-14.56,12.26-29.67,28.01-50.43,25.2l-44.62-6.06c-2.37-2.39-7.92-1.4-10.59-2.59-13.03-5.84-27.64-6.14-41.03-9.73l-52.33-14.05-50.1-11.73c-12.5-2.93-24.37-11.55-38.32-6.4l21.44,14.76c4.79,3.3,8.11,7.09,7.91,12.37-.16,4.31-2.14,12.13-8.13,14.9l-120.54,55.83c-4.17,1.93-6.84,4.61-8.84,7.26-2.52-.34-6.02,1.66-8.04,2.59-5.03.03-10.1,2.09-15.31,5.34-40.17,25.1-64.05,4.64-114.13,34.82-53.6,32.31-105.17,46.39-165.99,26.95-13.95-4.46-28.37-9.58-44.43-5.23l66.13,48.98c26.33,19.5,30.86-12.89,83.42-27.63,41.97-11.77,53.3,20.02,79.6,37.69,20.37-7.95,41.31-4.2,60.7-.65,1.31,2.86,5.51,3.04,7.87,4.13,2.98,2.43,5.27,8.24,9.8,8.83,10.04,14.27,25.56,24.26,40.64,32.91,1.58,1.98,3.22,5.49,7.29,6.79,28.32,9,48.74,30.61,57.32,58.75,2.74,8.98,9.69,14.9,17.33,17.39,1.85.6,4.71-.45,6.34.54,13.79,8.35,28.71,15.48,40.44,28.48,35.45,39.28,4.63,78.38,38.06,95.06l56.86,28.36c16.97,8.46,31.14,22.9,49.95,27.4,3.23,5.72,9.83,8.27,16.34,11.6l52.67,26.94,18.92,14.08c18.36,13.66,27.53,19.76,22.38,57.33-.79,5.75-8.73,10.79-8.47,17.09-2.24.69-4.18,3.84-5.47,5.45l-19.95,11.78c-2.78,1.64-7.27,1.59-8.45,5.22-6.99.96-21.34,1.27-26.26-5.34-5.88-11.05-18.74-16.03-30.97-19.77-2.93-2.98-7.68-5.31-11.02-7.78-17.37-12.85-58.7-39.63-77.24-47.32-3.57-4.7-7.76-9.71-14.12-8.15-.67.16-1.46-.27-2.15-.21-1.94-4.85-7.21-5.97-11.18-8.59-23.1-15.25-47.12-29.83-72.1-41.77-3.33-1.59-4.49-5.56-9.55-5.37-6.48.25-6.02,6.3-9.53,9.02-14.74,11.44-24.06,58.03-14.02,60.17,3.64,14.09,16.19,25.36,30.88,25.4l11.24,7.84c3.3,2.3,56.27,56.92,66.88,73.58,18.85,29.59,13.85,31.43,21.03,59.44l.38,8.07c-7.89,9.45,2.21,19.31-12.07,35.87-3.14,1.67-8.01,5.51-10.55,7.97-8.98-2.58-18,5.37-26.97,3.72-7.7-1.42-14.43-8.58-22.7-8.59-.82-5.4-7.27-7.52-10.08-12.57l-23.9-42.92c-6.77-12.16-23.21-34.86-38.49-33.55-5.6.48-7.01,8.61-10.27,10.98-7.04-.08-7.96,6.25-11.83,8.85-12.41,8.36-19.52,21.34-29.27,33.87-9.64,12.4-22.77,21.71-29,35.47-15.62,4.74-23,21.4-32.61,33.23-8.83,10.87-23.71,17.86-27.16,32.6-12.87,7.62-26.3,17.92-34.49,30.33-3.5-.24-4.89,4.76-7.02,6.03-12.33,7.33-22.3,17.98-33.09,27.33-14.99,12.98,7.1,17.9-32.85,66.32-3.98,4.82-8.16,8.33-9.08,13.56l-107.42.75c-2.58.02-4.62-1.02-5.08-2.12-.75-1.76-1.02-5.96,1.54-7.72,46.46-32.03,68.34-65.95,114.48-106.29l79.3-69.31c4.2-3.67,7.47-7.93,7.75-12.68l-34.63-2.15c-5.68-.35-7.97-4.94-8.46-9-.61-5.01,2.76-7.58,8.14-9.2l55.48-16.71c17.91-5.4,32.9-15.23,45.03-29.52,99.51-117.3,56.29-101.13,64.97-189.13,3.18-32.27,19.38-60.6,44.71-79.57l31.55-23.62c10.07-7.54,13.03-19.19,13.12-30.55.09-11.63-6.78-20.41-15.14-28.28-16.77-15.78-33.23-10.95-50.16.75-31.35,21.67-65.05,38.27-94.46,63.24-7.22,6.13-19.44,9.21-26.68,2.2-3.37-3.27.47-11.28,3.54-14.27,34.21-33.34,70.46-61.77,109.86-89.61-1.01-26.33-36.07-76.13-63.96-55.28l-98.11,73.36c-10.11,7.56-32.98,25.55-41.18,19.17-15.37-11.96,22.66-41.99,32.7-49.92l76.57-60.54c6.42-5.07,7.06-12.45,2.66-19.01-9.63-14.34-26.21-19.73-42.76-13.33-23.25,9-44.25,22.23-62.2,39.74l-65.74,64.14c-2.66,2.6-7.18,2.35-9.3,2.92-22.27,6.04,17.39-70.01,63.51-103.11,9.97-7.15,14.86-16.02,10.56-27.24-3.2-8.35-14.07-18.43-24.86-12.61-18.42,9.93-35.07,22.32-52.84,33.3-9.94,6.15-17.67,13.33-24.66,22.77-30.53,41.23-59.92,82.76-93.85,120.99-16.52,18.61-19.03,38.07-11.75,61.61,17.93,58.02,26.63,118.77,27.44,179.9.53,39.51-20.63,71.8-52.16,92.24l-81.89,53.09c-40.62,26.33-76.96,55.68-118.65,80.72-41.23,24.77-82.75,43.58-125.25,66.02-60.44,31.92-123.06,52.77-191.59,59.19-56.98,5.33-58.92,42.52-118.98,14.35-109.96-51.58-213.29-112.57-307.19-190.39-87.49-72.52-165.97-153.08-232.01-245.11-4.6-6.41-9.14-11.95-8.52-18.56,1.97-20.84-37.47-96.85-23.1-146.26l26-89.44c7.59-26.11,13.26-51.85,21.6-77.55,9.9-30.53,31.83-57.57,37.15-81.57,21.31-19.45,43.47-40.65,56.06-68.19,15.73-34.39,18.13-95.82,58.33-126.86,16.65-12.85,29.42-27.95,38.78-46.96,12.26-24.9,31.85-42.93,50.78-62.99,18.21-19.3-36.61-71.56-96.97-79.94-25.12-3.49-41.8-16.11-53.14-38.5-27.27-53.86-19-118.79,28.95-157.23l54.95-44.05c12.73-10.2,22.04-21.43,32.95-33.79,8.5-9.64,33.28-7,34.91,4.73l4.04,29.04c6.99-5.72,15.87-10.67,22.85-7.78,5.55,2.3,14.76,8.62,14.6,17.45-1.46,80.78,74.45,106.49,82.41,103.6,2.8-1.02,6.39-3.77,7.97-7.87,7.76-20.22,18.82-37.88,28.54-57.09,23.4-46.2,61.11-19.98,63.61-55.07,1.31-18.34-1.18-36.16-6-54.13-16.45-61.4-35.13-96.75-45.48-159.1-6.12-36.89-89.06-138.42-115.12-243.79-14.16-57.28-5.7-116.29,23.13-167.69,27.68-49.35,56.45-95.54,91.8-139.59,26.55-33.08,58.85-58.86,92.43-84.05,57.07-42.82,39.87-41.19,51.92-62.09,7.46-12.95,42.55-30.93,55.62-27.14,8.52,2.47,7.39,19.84,18.06,14.91,29.26-13.5,57.93-24.01,89.79-30.84l202.79-43.44c11.38-2.44,22.01-7.6,33.24-3.51,16.48,6,49.88,35.12,48.1,49.89-1.93,16-104.43,68.67-124.22,94.93,22.66.23,124.18-57.71,132.14-47.25,2.3,3.01,1.16,7.09-2.62,9.61l-33.32,22.14c-2.84,1.89-5.87,4.42-5.82,7.28ZM2554.97,535.62c12.83,1.09,26.8-6.92,31.61-18.31,6.77-16.06,7.19-38.67-2.61-53.58-16.94-25.78-73.27-27.21-99.03-60.64-51.05-21.04-134.62-31.39-190.81-37.84-15.42-1.77-24.18,7.75-29.79,19.27-11.77,24.17-16.95,48.47-10.86,75.82l59.31,2.69,58.28-9.36c24.09-3.87,48.59-.1,72.88.84,40.79,1.57,73.2,25.96,90.33,62.38,3.77,8.02,8.79,17.73,20.69,18.74ZM2235.6,458.97c-19.73-27.81,9.88-54.92-6.64-67.79-8.51-6.63-21.37-4.28-31.83-4.02-11.07.27-16.44,8.7-16.77,18.95-.7,22.05-2.91,42.61-1.5,64.14,20.92-3.47,37.96-5.85,56.74-11.28ZM2630.26,464.22c-7.29-4.78-14.88-4.18-19.96,1.31-2.17,9.29,1.31,18.07,9.15,23.39,8.68-5.54,13.03-14.02,10.8-24.7ZM2615.24,657.75c6.02-12.57,8.77-27.62,5.33-39.35-5.84-19.92,5.7-27.77,16.77-39.98,15.6-17.2,26.91-36.31,48.49-48.39,4.04-2.26,11.16-10.7,10.11-16.2-2.38-12.48-21.53-17.81-30.31-9.18l-51.76,50.86c-8.3,8.15-14.94,17.6-16.56,29.45-2.61,19.07-12.5,66.79-2.36,81.5,4.63,6.71,16.82-1.49,20.28-8.71ZM2758.9,694.45c6.34-21.96,8.14-42.99,9.7-63.78.84-11.16,13.09-8.51,18.12-13.95,20.4-22.04,40.13-45.23,68.18-58.5,4.85-2.29,10.69,5.97,10.36,9.55-1.53,16.46-28.39,21.2-44.61,50.26-11.37,20.38-27.59,83.18-3.49,83.51,6.02.08,7.96-5.31,9.01-11.28,2.71-15.35,13.26-27.75,18.17-41.68s12.47-20.23,25.89-25.6c20.88-8.34,37.45-24.52,56.96-37.76-17.07-52.94-53.73-32.37-68.82-50.42-23.62-28.25-52.87,3.51-111.73-28.75-16.05-8.8-15.36,24.19-21.69,29.83l-54.2,48.26c-9.69,8.63-14.21,18.79-14.84,32.17-1.05,22.4-11.42,63.7,4.17,65.88,15.29,2.14,9.66-11.46,26.72-32.35,10-12.25-4.5-18.23-3.19-23.81,1.94-8.24,19.72-.28,21.26-26.57,16.48-20.05,32.35-39.55,50.29-58.05,5.98-6.17,30.4-14.88,34.61-.05,4.42,15.55-60.32,46.06-60.07,102.48.08,17.74,2.37,35.23,9.81,51.29,2.83,6.1,17.36,6.33,19.38-.67ZM2944.78,926.7c61.79-193.46,131.8-141.31,139.48-153.19,4.36-6.75-30.47-19.82-40.06-24.36-25.75,16.1-54.87,31.47-72.58,58.39-37.1,56.4-53.04,124.66-52.54,190.56,3.62,3.18,11.3-2.1,11.53-7.07,1.03-22.17,6.98-41.83,14.17-64.32ZM1911.66,896.49c3.23,41.07,30.08,74.9,68.82,87.95l33.19,11.18c10.33,3.48,13.83,13.42,9.36,23.56-11.28,25.62-4.43,53.73,17.74,70.92,11.31,8.78,25.87,11.21,39.42,5.4,17.22-7.39,34.31-12.82,51.51-22.67-19.6-20.2-11.76-48.55-2.31-48.54,10.6.02,7.53,20.22,25.37,28.01,26.41,11.53,32.89-13.66,80.91-8.11,12.26,1.42,18.42,11.88,21.55,23.5,36.93-15.48-66.45-111.04-54.94-175.25l8.41-46.87c2.37-13.2,2.67-25.66,9.9-37,1.34-2.11.11-5.68-.74-6.86-2.85-3.9-43.37-.28-47.53.36l-58.52,9.03c27.43,2.46,52.98,1.73,75.2,17.12,7.19,4.99,13.11,10.2,12.77,18.72-.27,6.69-3.66,13.89-10.82,17.77l-39.2,21.24c-22.45,12.16-2.96,29.92-8.1,37.09-3.7,5.17-54.1,3.1-63.22.34-16.98-5.13-31.61-10.12-50.01-7.18-7.08,1.13-18.38,2.12-24.88-1.32-19.02-10.06,16.72-29.92,6.82-33.01-5.29-1.65-15.87.87-17.6-4.8-4.49-14.72,7.55-24.62,19.17-30.59,20.16-10.36,36.58-22.67,56.99-29.73-34.02-3.19-60.77-.59-89.2-4.9l-30.54-4.63c-43.04-6.53-41.61,62.76-39.53,89.25ZM2072.72,865.5c20.33-3.02,39.89-4.37,60.13-5.81-4.9-13.36-55.44-4.19-68.7-3.47-2.5,4.1,3.72,10,8.56,9.28ZM1565.74,1256.26c-1.56,38.01-14.42,72.48,21.8,99.4,24.12,17.92,52.85,29.54,82.7,32.58,20.02,2.03,26.85,14.4,35.21,30.28,15.88,30.15,39.93,56.85,66.79,78.08,29.88,23.61,65.04,35.85,101.28,45.61,2.87.77,6.1-2.04,6.49-3.45.26-.94,1.38-2.94.75-5-16.37-53.03.37-90.78-21.19-99.28l-61.17-24.1c-23.72-9.34-39.18-49.63-50.75-50.79-9.9-1-16.8,10.36-26.17,4.88-7.22-4.23.42-17.47-5.17-19.82-4.62-1.94-14.09-1.9-16.58-6.38-1.7-3.05-1.33-7.11,1.04-10.44l37.81-53.02c1.62-2.27,2.14-6.62.41-7.92-17,7.31-34.73,30.07-47.32,22.66-3.01-1.77-9.56-8.16-5.72-12.44,67.74-75.66,62.17-131.79,101.66-221.54,16.03-36.43,11.91-74.48,9.15-113.44-2.45-34.65-23.45-67.59-60.63-67.78-15.47-.08-19.39,19.02-23.92,29.46-6.62,15.25-8.77,25.33,1.34,38.95,13.42,18.09,25.11,39.59,28.97,63.23-21.61,7.25-41.73-1.01-62.62-4.5-11.05-1.84-21.16-5.89-25.36-15.89-8.42-20.02,19.34-32.42,10.74-43.53-7.29-9.42-20.34,5.48-24.87,2.23-10.12-7.24,9.09-20.6,9.16-30.04-13.57,3.8-25.42,7.92-38.66,14.61-8.07,48.71,60.02,102.99,98.09,125.17,21.41,12.47,37.58-20.62,47.22-18.05,16.34,4.37,4.45,36.76-20.07,50.36-52.63,29.19-100.44-45.46-140.67-77.47-6.78,94.66-64.72,80.56-87.84,163.67-9.6,34.49-12.51,69.82,3.17,102.98,2.66,5.62,10.2,16.33,16.63,13.99,16.55-6.01,23.17-21.36,38.29-33.25ZM2093.99,894.01c0-3.52-2.85-6.37-6.36-6.37s-6.36,2.85-6.36,6.37,2.85,6.37,6.36,6.37,6.36-2.85,6.36-6.37ZM2771.24,1103.46c12.99,2.33,33.17,7.09,42.6-.44,9.53-7.62,2.43-27.74.66-37.78-14.18-4.06-25.85-.16-39.55-1.95l-138.6-18.1c-16.58-2.17-32.3-9.23-47.81-2.15l60.03,21.57c-14.26,9.76-30.41,4.05-45.77,6.53,23.04,8.19,45.9,10.32,69.25,14.51l99.2,17.82ZM2945.72,1199.46c5.51-7.89,10.31-15.78,14.15-25.43-8.23-5.81-14.15,1.36-20.36,5.05-35.1,20.9-18.07,56.85-17.25,56.96,8.02,1.12,8.29-14.86,23.46-36.58ZM2230.76,1234.2c-10.08-4-28.5,42.12-13.38,42.44,8.77.19,25.46-37.65,13.38-42.44ZM1206.76,1354.88c2.98-26.34,16.32-43.85,34.32-59.71-.34-13.23-4.59-26.7-12.89-37.2-13.68,15.02-18.41,31.72-25.53,48.19-9.64,22.31-26.45,11.94-29.43,20.01-4.9,13.28,20.35,25.77,33.52,28.71ZM1140.17,1307.93c1.43-9.05-11.44-19.38-17.91-21.18-6.27-1.74-11.28,6.73-13.15,10.57-1.81,3.71-2.52,11.94,2.23,15.32,6.31,4.49,27.09,6.32,28.83-4.72ZM1497.08,1487.64c18.39-9.53-32.57-16.28-34.7-17.58-59.8-36.22-118.87-70.83-180.46-103.69-4.79-2.56-7.57-7.23-7.67-11.02-.23-9.45,14.23-15.5,7.8-23.27-6.03-7.27-16.28-9.68-25.23-6.79-9.9,14.96-38.85,37.71-20.81,50.18,30.53,21.12,38.98,7.36,80.94,29.4l149.92,78.75c8.49,4.46,22.03,8.27,30.21,4.03ZM1184.74,1376.77c-12.14-8.56-43.68-37.85-52.41-30.7-5.67,4.65-9.16,51,23.77,57.36,14.45,2.79,28.17-12.53,28.64-26.66ZM2243.63,1405.54c12.07-16.21,17.57-41.06-.04-57.92-1.62,19.79-1.42,37.95.04,57.92ZM1573.67,1487.77l-175.04-111.09c-8.25-5.24-40.19-27.21-47.36-16.99-1.52,2.17-2.56,9.91-.1,12.59l169.26,99.49c5.77,3.39,46.27,33.18,53.24,16ZM1621.68,1529.13c2.74-9.87-6.02-15.29-11.56-17.56s-13.11-2.96-18.2,2.49c-5.54,5.94-6.21,15.11-13.7,20.66l-55.46-28.44c-4.44-2.28-9.13,1.29-9.73,5.12-4.39,28.08-47.63,30.89-72.71,22.38-14.76-5.01-32.52-3.48-46.45-12.04-45.09-27.69-91.76-50.52-145.78-64.19,1.67,16.64,13.43,28.82,27.06,36.23,54.49,29.62,108.47,57.66,164.81,83.28,15.77,7.17,31.85,2.16,43.65-8.25,15.53-13.69,46.05-35.4,66.16-21.05l35.33,25.21c6.67,4.76,15.22,1.89,18.36-5.5,5.35-12.59,14.15-23.73,18.21-38.34ZM2245.73,1502.15c6.75-8.25,14.51-16.23,5.26-29.56-8.26,17.67-26.67,20.74-37.1,30.28-16.49,15.08-20.43,40.93-41.11,54.39,12.17,23.11,67.22-48.09,72.96-55.11ZM2131.8,2041.57c9.55,6.22,21.8-.65,26.16-6.44,17.4-23.12-18.25-35.42-43.37-51.67l-387.09-250.32-133.63-84.9c-30.08-19.11-53.31-43.41-73.34-74.4-17.95,17.34-34.81,31.13-57.09,38.45-2.77.91-4.42,3.93-4.16,5.52,1.37,8.15,36.62,30.43,47.46,37.1l322.61,198.64,188.29,113.66,114.16,74.34ZM2230.17,1909.72l-56.6-45.99c-104.07-84.57-251.61-145.99-354.55-231-17.61-14.54-57.35-54.14-74.73-48.46-7.4,2.42-25.84,28.81-18.13,33.5l224.65,136.58c52.44,31.88,105.09,57.26,156.54,89.69l99.78,62.88c6.55,4.13,14.71,13.29,23.04,2.79ZM1955.37,2421.01c-7.67,2.89-14.79-1.65-17.48-5.21-2.62-3.47-4.55-8.7-2.97-14.57,2.42-9,10.23-16.32,19.32-20.16l184.42-77.88c5.66-2.39,11.28-3.23,12.75-7.4s2.95-10.97-1.2-13.93c-6.08-4.34-16.01-3.18-23.52-.42l-156.96,57.8c-11.48,4.23-22.93,8.46-35.1,9.59-8.05.75-10.62-9.34-12.46-14.49-1.57-4.39-1.94-15.1,5.19-17.84,43.97-16.88,88.6-30.02,133.98-43.31,8.57-2.51,16.9-2.88,22.76-9.62-57.91,2.78-106.19,21.6-164.79,31.25-11.08,1.83-19.28-2.19-25.06-11.76l-174.68-288.97c-51.98-85.99-110.82-164.48-176.61-240.03-49.54-56.89-104.72-105.09-171.17-141.45-45.7-25.01-99.25-28.68-148.53-14.99-12.1,3.36-21.34,14.53-22.8,27.3,31.33-5.82,60.27-3.83,90.5,4.7,94.68,26.72,132.84,85.71,185.78,160.59,27.43,38.79,52.65,76,75.12,118.42l156.82,296.14,63.83,124.01c9.39,18.25,7.75,35,4.17,54.22-6.7,35.91-11.28,71.2-20.74,106.67-5.19,19.46-4.74,38.69-.78,58.19,3.63,17.87,21.6,30.51,40.13,22.39,75.72-33.2,143.12-78.05,211.34-124.85,42.36-29.06,85.35-52.41,124.69-85.19,6.54-5.45,14.16-11.8,15.94-19.74-1.18-2.48-6.97-2.65-10.16-1.36-64.11,25.92-119.89,58.64-181.72,81.92ZM1661.24,2536.97c-10.64-24.19-11.92-33.05-23.09-29.95-1.67.46-1.91,3.73-1.11,7.28l10.49,46.53c9.91,3.1,18.38-13.24,13.71-23.87Z"/><path class="e" d="M1911.66,896.49c-2.08-26.49-3.51-95.78,39.53-89.25l30.54,4.63c28.43,4.31,55.18,1.71,89.2,4.9-20.41,7.06-36.83,19.37-56.99,29.73-11.62,5.97-23.66,15.87-19.17,30.59,1.73,5.67,12.31,3.15,17.6,4.8,9.9,3.08-25.84,22.95-6.82,33.01,6.5,3.44,17.8,2.45,24.88,1.32,18.4-2.95,33.03,2.04,50.01,7.18,9.12,2.76,59.51,4.82,63.22-.34,5.14-7.17-14.35-24.92,8.1-37.09l39.2-21.24c7.16-3.88,10.55-11.08,10.82-17.77.34-8.53-5.57-13.74-12.77-18.72-22.22-15.4-47.78-14.67-75.2-17.12l58.52-9.03c4.16-.64,44.69-4.26,47.53-.36.86,1.17,2.09,4.75.74,6.86-7.23,11.34-7.53,23.8-9.9,37l-8.41,46.87c-11.51,64.21,91.86,159.76,54.94,175.25-3.13-11.63-9.29-22.08-21.55-23.5-48.01-5.55-54.5,19.64-80.91,8.11-17.85-7.8-14.78-28-25.37-28.01-9.45-.01-17.29,28.34,2.31,48.54-17.2,9.86-34.29,15.28-51.51,22.67-13.55,5.82-28.11,3.38-39.42-5.4-22.16-17.19-29.02-45.3-17.74-70.92,4.47-10.15.97-20.09-9.36-23.56l-33.19-11.18c-38.75-13.05-65.59-46.88-68.82-87.95Z"/><path class="e" d="M2554.97,535.62c-11.9-1.01-16.92-10.73-20.69-18.74-17.13-36.42-49.54-60.81-90.33-62.38-24.28-.93-48.79-4.7-72.88-.84l-58.28,9.36-59.31-2.69c-6.09-27.35-.91-51.65,10.86-75.82,5.61-11.52,14.36-21.04,29.79-19.27,56.19,6.45,139.77,16.81,190.81,37.84,25.76,33.43,82.08,34.86,99.03,60.64,9.79,14.9,9.38,37.51,2.61,53.58-4.8,11.4-18.77,19.4-31.61,18.31Z"/><path class="m" d="M2758.9,694.45c-2.02,7-16.55,6.77-19.38.67-7.43-16.05-9.73-33.55-9.81-51.29-.25-56.41,64.49-86.93,60.07-102.48-4.22-14.83-28.63-6.12-34.61.05-17.95,18.49-33.81,38-50.29,58.05-1.54,26.29-19.32,18.33-21.26,26.57-1.31,5.58,13.19,11.56,3.19,23.81-17.05,20.88-11.42,34.49-26.72,32.35-15.59-2.18-5.22-43.48-4.17-65.88.62-13.38,5.14-23.54,14.84-32.17l54.2-48.26c6.34-5.64,5.64-38.63,21.69-29.83,58.86,32.26,88.12.5,111.73,28.75,15.09,18.05,51.75-2.52,68.82,50.42-19.51,13.24-36.08,29.42-56.96,37.76-13.42,5.36-20.85,11.31-25.89,25.6s-15.46,26.32-18.17,41.68c-1.06,5.98-2.99,11.36-9.01,11.28-24.1-.32-7.89-63.13,3.49-83.51,16.22-29.06,43.08-33.8,44.61-50.26.33-3.58-5.51-11.84-10.36-9.55-28.05,13.27-47.79,36.46-68.18,58.5-5.03,5.44-17.29,2.79-18.12,13.95-1.56,20.8-3.36,41.83-9.7,63.78Z"/><path class="m" d="M2771.24,1103.46l-99.2-17.82c-23.35-4.19-46.21-6.32-69.25-14.51,15.36-2.48,31.51,3.23,45.77-6.53l-60.03-21.57c15.51-7.08,31.23-.02,47.81,2.15l138.6,18.1c13.7,1.79,25.38-2.12,39.55,1.95,1.77,10.04,8.87,30.16-.66,37.78-9.42,7.53-29.61,2.77-42.6.44Z"/><path class="m" d="M2944.78,926.7c-7.18,22.49-13.13,42.16-14.17,64.32-.23,4.97-7.91,10.24-11.53,7.07-.5-65.89,15.44-134.16,52.54-190.56,17.71-26.92,46.83-42.28,72.58-58.39,9.59,4.54,44.42,17.61,40.06,24.36-7.67,11.88-77.69-40.26-139.48,153.19Z"/><path class="m" d="M2615.24,657.75c-3.46,7.22-15.66,15.43-20.28,8.71-10.14-14.72-.24-62.43,2.36-81.5,1.62-11.85,8.27-21.3,16.56-29.45l51.76-50.86c8.78-8.63,27.93-3.29,30.31,9.18,1.05,5.5-6.07,13.94-10.11,16.2-21.58,12.08-32.89,31.19-48.49,48.39-11.07,12.2-22.61,20.06-16.77,39.98,3.44,11.74.69,26.78-5.33,39.35Z"/><path class="m" d="M2235.6,458.97c-18.78,5.43-35.82,7.81-56.74,11.28-1.41-21.53.8-42.09,1.5-64.14.32-10.26,5.7-18.69,16.77-18.95,10.46-.25,23.32-2.61,31.83,4.02,16.52,12.88-13.08,39.99,6.64,67.79Z"/><path class="m" d="M2245.73,1502.15c-5.74,7.01-60.78,78.22-72.96,55.11,20.68-13.46,24.62-39.3,41.11-54.39,10.43-9.54,28.84-12.61,37.1-30.28,9.25,13.34,1.5,21.31-5.26,29.56Z"/><path class="m" d="M2945.72,1199.46c-15.17,21.72-15.44,37.7-23.46,36.58-.81-.11-17.85-36.06,17.25-56.96,6.21-3.7,12.13-10.86,20.36-5.05-3.84,9.66-8.64,17.55-14.15,25.43Z"/><path class="m" d="M2072.72,865.5c-4.84.72-11.06-5.18-8.56-9.28,13.26-.73,63.8-9.89,68.7,3.47-20.24,1.44-39.81,2.79-60.13,5.81Z"/><path class="m" d="M2230.76,1234.2c12.08,4.79-4.61,42.63-13.38,42.44-15.12-.32,3.3-46.44,13.38-42.44Z"/><path class="b" d="M2243.63,1405.54c-1.46-19.97-1.66-38.13-.04-57.92,17.61,16.86,12.11,41.71.04,57.92Z"/><path class="m" d="M2630.26,464.22c2.22,10.68-2.13,19.16-10.8,24.7-7.84-5.32-11.32-14.1-9.15-23.39,5.08-5.49,12.67-6.09,19.96-1.31Z"/><circle class="b" cx="2087.63" cy="894.01" r="6.36"/><path class="b" d="M1953.41,330.88c.07,4.63-6.12,9.72-9.41,7.31.58-4.47,6.44-8.36,9.41-7.31Z"/><rect class="m" x="1965.01" y="2876.27" width="168.52" height="2.76"/><path class="f" d="M3078.95,1547.27c3.8,12.98,2.16,26.99-.4,41.58-12.07,68.86-16.35,115.81,1,183.92,1.32,5.17,9.55,4.87,13.18,3.78,13.55-4.08,19.09-48.3,21.34-60.68,5.05-27.82,11.21-54.29,7.91-82.96-.69-5.98-6.04-17.7.74-21.52,11.87-6.69,18.11-15.67,17.72-28.78,8.56-5.29,11.5,29.39,11.07,33.02-.74,6.23-10.28,5.08-14.77,7.06-5.65,2.49-4.6,9.41-4.77,13.74-.21,5.62,5.28,8.98,9.8,13.12,17.31,15.86,26.16,42.42,40.39,44.9,32.67,5.71,5.88-63.47,20.56-73.51,2.1-1.43,8.18-1.41,9.75,2.7,10.72,27.97,26.95,51.77,45.31,75.47,4.27,5.51,8.88,10.38,8.88,16.74-3.45-1.62-30.25-29.84-38.05-10.51-3.58,8.88.64,20.02,3.03,28.79l27.79,102.05c2.27,8.34,1.99,17.78-7.46,22.52l-79.21-93.64c-10.45-12.36-22.11-27.11-39.29-29.15-6.47,3.77-1.9,16.42-1.03,22.85,3.57,26.56,8.82,51.16,22.18,74.37-.35,31.41,17.34,48.33,17.12,71.22-19.59-9.56-12.23-64.3-36.7-58.45-5.22,1.25-10.02,5.41-9.8,13.31,1.44,51.63-8.36,85.29,40.63,122.95,34.08,26.2,49.94,68.43,52.61,110.41.25,3.92,2.42,10.46,5.7,8.25-3.68,3.85-8.97,13.47-10.93,18.49-5.58.38-3.6-6.14-3.95-11.16-1.69-24.75-8.5-49.23-17.7-71.8-23.32-3.2-13.52,37.15-55.73,71.36-11.99,9.72-24.6-8.54-30.33-10.35-3.32-13.1-16.99-4.91-26.82-38.27-16.57-56.24-23.05-45.82-33.4-113.88-4.52-29.74-10.75-58.5-5.61-88.55,1.05-6.13-.43-12.76-3.72-16.53-2.56-2.93-10.9-8.84-14.27-4.15l-25.38,35.28c-7.39,10.28-13.31,21.13-16.24,33.71-1.99,8.55-10.57,15.05-19.55,10.92-11-5.06-20.4-3.01-28.96,7.7-77.89,97.43-51.79,230.15,27.76,319.48,6.78,7.61,9.55,17.61,3.91,26.92-6.25,10.31-12.6,21.79-21.66,30-5.04,4.57-13.02-2.43-17.85-1.79,5.15-37.57-4.03-43.67-22.38-57.33l-18.92-14.08c1.04-6.47-3.95-11.71-6.4-18.14-28.07-73.74-73.47-82.06-102.7-123.48-24.58-34.82,1.47-72.35,27.21-97.32,55.63-53.97,113.75-83.82,168.44-146.74,58.94-67.81,80.72-127.62,51.38-216.05-2.74-8.25-5.5-15.02-6.03-22.34,11.77-9.79,27.16-30.62,42.24-37.03,4.79.35,9.53,2.17,15.45.71,1.33-5.97.54-10.78.61-15.55l6.29-3.58Z"/><path class="h" d="M3078.73,2059.08c-4.54-.02-10-2.36-12.6-8.12-26.8-59.33-39.72-123.14-37.6-188.54.13-4.01-2.12-7-4.09-7.39-2.24-.44-4.47.28-6.37,2.3-30.41,32.34-35.13,66.68-60.75,102.43-14.04,75.57-17.5,97.92-.31,173.09,8.22,35.94,29.01,67.33,59.1,87.07,24.9,16.34,54.38,12.71,74.64-8.18,27.26-28.11,35.21-68.42,17.28-103.7-1.97-3.88-1.7-7.59-2.49-10.69,5.73,1.81,18.34,20.07,30.33,10.35,42.22-34.21,32.41-74.56,55.73-71.36,9.2,22.57,16.01,47.05,17.7,71.8.34,5.02-1.63,11.54,3.95,11.16-7.17,18.46-28.39,50.83-40.41,67.94-9.52,13.56-51.88,78.73-61.06,78.52-6.52-.15-11.66,3.8-17.36,8.13-43.44,32.97-58.17,29.82-95.02,78.56-4.87,6.44-15.18,8.91-19.44,16.43-5.58,9.84-16.49,11.15-24.93,16.52-4.67,2.97-7.36,9.11-12.36,5.44-17.92-13.15,10.51-39.74-17.3-77.71-1.87-2.06-8.25,2.09-10.08,2.15-.26-6.29,7.68-11.33,8.47-17.09,4.83-.64,12.81,6.36,17.85,1.79,9.06-8.21,15.41-19.69,21.66-30,5.64-9.31,2.87-19.31-3.91-26.92-79.56-89.34-105.66-222.06-27.76-319.48,8.56-10.71,17.96-12.76,28.96-7.7,8.98,4.13,17.56-2.37,19.55-10.92,2.93-12.58,8.85-23.43,16.24-33.71l25.38-35.28c3.37-4.69,11.71,1.22,14.27,4.15,3.29,3.77,4.77,10.39,3.72,16.53-5.14,30.05,1.09,58.81,5.61,88.55,10.34,68.06,16.83,57.63,33.4,113.88Z"/><path class="i" d="M3365.44,1729.21c-2.27,19.92-7.42,39.42-13.84,58.43-3.75-.36-7.23-2.44-10.53-5.8l-41.05-41.79c-9.04-9.2-16.62-18.76-28.7-21.57-1.64-.38-3.12-1.91-4.65-2.63,0-6.36-4.62-11.23-8.88-16.74-18.36-23.7-34.59-47.5-45.31-75.47-1.58-4.11-7.66-4.14-9.75-2.7-14.68,10.04,12.12,79.23-20.56,73.51-14.23-2.49-23.07-29.04-40.39-44.9-4.52-4.14-10.01-7.5-9.8-13.12.16-4.33-.89-11.25,4.77-13.74,4.49-1.98,14.04-.83,14.77-7.06.43-3.64-2.52-38.31-11.07-33.02-.07-2.47-.58-5.07-1.13-7.48,5.98-16.34,3.48-34.94,7.45-53.28,7.91-36.49,36.74-61.12,36.41-71.39,10.03-7.29,85.28-67.89,90.8-50.86,3.34,10.31-72.85,76.03-34.68,177.83,25.18,67.15,71.9,110.29,126.15,151.78Z"/><path class="h" d="M3266.67,1715.85c1.53.72,3.01,2.24,4.65,2.63-.32,5.28,4.39,7.86,8.01,11.93,19.46,21.89,42.6,39.42,58.44,62.57-4.54-1.4-9.88-3.6-14.04-7.82l-40.74-41.37c-13.41-13.62-24.51-30.43-46.35-35.29,4.12,43.33,17.62,82.23,30.61,122.34,13.53,41.78,18.33,83.68,26.34,125.31-9.44,18.87-15.5,38.17-25.01,58-6.92-4.34-10.13-12.98-16.95-18.63l-30.33-25.08c-21.28-17.59-38.49-41.85-49.55-66.1.22-22.89-17.48-39.82-17.12-71.22-13.36-23.21-18.61-47.81-22.18-74.37-.86-6.42-5.43-19.08,1.03-22.85,17.18,2.05,28.84,16.8,39.29,29.15l79.21,93.64c9.45-4.73,9.73-14.18,7.46-22.52l-27.79-102.05c-2.39-8.77-6.61-19.91-3.03-28.79,7.8-19.33,34.6,8.89,38.05,10.51Z"/><path class="i" d="M3171.75,1904.34c11.06,24.25,28.27,48.51,49.55,66.1l30.33,25.08c6.82,5.64,10.03,14.29,16.95,18.63l-29.51,61.54c-3.86,8.05-9.5,19.48-14.89,25.12-3.28,2.21-5.45-4.34-5.7-8.25-2.67-41.99-18.53-84.21-52.61-110.41-48.99-37.66-39.19-71.32-40.63-122.95-.22-7.9,4.59-12.06,9.8-13.31,24.46-5.84,17.11,48.89,36.7,58.45Z"/><path class="b" d="M3337.77,1792.98c2.71,3.96,6.04,7.81,10.88,8.88-14.09,52.87-30.88,105.94-55.06,154.29-8.01-41.63-12.81-83.53-26.34-125.31-12.99-40.12-26.49-79.01-30.61-122.34,21.84,4.86,32.94,21.67,46.35,35.29l40.74,41.37c4.16,4.22,9.5,6.42,14.04,7.82Z"/><path class="h" d="M3365.44,1729.21c-54.25-41.49-100.97-84.63-126.15-151.78-38.17-101.8,38.02-167.52,34.68-177.83-5.52-17.03-80.76,43.58-90.8,50.86-.21-6.47,4.22-10.73,9.03-15.97,20.14-21.92,45.45-35.75,72.15-49.26,8.35-4.23,19.05-11.41,27.8-4.52,19.87,15.64-62.42,45.71-46.92,170.4,2.74,22.05,10.92,41.72,23.75,59.31,5.93,8.13,8.86,18.72,15.8,25.83l47.71,48.86c8.54,8.74,17.59,18.11,26.68,25.53,7.97,6.5,7.11,11.13,6.26,18.56Z"/><path class="b" d="M2487.54,2635.73c-.39,4.69-3.66,8.72-8.21,11.99-16.16,11.63-30.67,23.8-45.68,36.73-4.94,4.26-13.68.49-18.4.85,4.54-44.45,13.81-56.42,6.38-108.22-1.36-9.5,13.14-26.35,22.32-21.99,20.77,9.87,25.72,35.34,24.12,55.91-.94,12.12-5.99,21.76-3.5,33.73,10.15-.24,15.57-7.21,22.97-9Z"/><path class="i" d="M2937.89,2448.55c2,10.44-46,45.92-55.28,49.49,1-27.66,13.64-30.65,16.05-69.37,2.08-33.43-.85-65.07-8.79-96.17l19.95-11.78c-.45,15.07,5.92,30.06,14.4,43.86,6.66,29.46,14.8,55.85,13.67,83.97Z"/><path class="b" d="M3111.8,2265.76c-5.73,17.39-21.22,36.48-39.94,42.28-12.63,3.91-18.59,8.88-28.02,16.87-16.34,13.85-32.51,25.83-46.05,42.95-10.82,13.68-26.54,23.38-40.33,33.78-28.98,21.86-4.73,44.45-19.58,46.91,1.14-28.12-7.01-54.51-13.67-83.97-8.48-13.8-14.85-28.79-14.4-43.86,1.3-1.61,3.23-4.75,5.47-5.45,1.83-.05,8.21-4.2,10.08-2.15,27.81,37.97-.61,64.56,17.3,77.71,5,3.67,7.69-2.46,12.36-5.44,8.44-5.38,19.35-6.68,24.93-16.52,4.26-7.52,14.57-9.99,19.44-16.43,36.85-48.74,51.58-45.59,95.02-78.56,5.7-4.33,10.84-8.28,17.36-8.13Z"/><path class="f" d="M2855.16,2332.38c-2.59,4.16-2.58,9.28-.46,13.66l.18,154.36c0,5.43,3.23,8.7,6.72,9.08,3.83.42,5.94-1.5,7.78-5.54,22.12-48.61,25.2-101.7,15.43-152.95-.86-4.49-1.92-8.91-3.39-13.26,1.18-3.63,5.68-3.58,8.45-5.22,7.94,31.1,10.87,62.74,8.79,96.17-2.41,38.71-15.05,41.71-16.05,69.37-2.66,5.3-8.69,9.34-14.75,13.48-14.63,9.99-27.37,24.98-43.4,29.98.92-12.77,3.75-25.8,7.37-39.43,13.47-50.76,13.4-101.8-.45-152.41-3.51-12.84-6.31-25.08-7.19-37.05,12.23,3.74,25.09,8.72,30.97,19.77Z"/><path class="h" d="M2824.19,2312.61c.88,11.97,3.68,24.21,7.19,37.05,13.85,50.6,13.93,101.65.45,152.41-3.62,13.64-6.46,26.67-7.37,39.43-2.8,8.2-14.11,9.75-19.78,14.01-1.16-6.65,3.15-11.93,5.74-19.16,24.91-69.46,25.25-145.11,3.07-215.53-1.98-6.3-3.02-11.11-.33-15.99,3.34,2.47,8.09,4.8,11.02,7.78Z"/><path class="f" d="M2414.29,2572.23c3.09,38.08-.16,75.48-7.66,112.86-10.1,1.55-20.26.29-30.39.35-1.25-8.14,1.64-16.43,5.55-24.63l22.28-46.85c5.59-11.75,6.91-24.19,3.2-35.7,2.13-1.26,3.52-6.27,7.02-6.03Z"/><path class="f" d="M2681.72,2572.87c-4.1,15.05,10.44,30.56,10.43,51.46-11.53,8.51-22.07,16.59-38.89,18.38,21.32-41.23,4.1-70.16,13.47-80.04,2.16-2.28,7.04-3.06,9.08.33l5.92,9.87Z"/><path class="f" d="M3183.18,1450.46c.33,10.27-28.51,34.9-36.41,71.39-3.97,18.34-1.48,36.94-7.45,53.28-9.16-39.96,4.33-83.19,30.68-115.37,4.4-5.37,9.2-6.4,13.18-9.29Z"/><path class="f" d="M3351.6,1787.64c-1.46,4.32-1.74,9.68-2.95,14.21-4.85-1.07-8.17-4.91-10.88-8.88-15.84-23.14-38.97-40.68-58.44-62.57-3.62-4.07-8.33-6.65-8.01-11.93,12.08,2.81,19.66,12.37,28.7,21.57l41.05,41.79c3.3,3.36,6.78,5.44,10.53,5.8Z"/><path class="b" d="M2692.15,2624.33c.01-20.9-14.53-36.4-10.43-51.46,12.42,3.85,26.27,54.78,10.43,51.46Z"/><path class="k" d="M2686.06,1658.04c12.25,23.61,37.46,37.58,60.62,52.2,12.38,7.81,19.72,21.76,27.57,33.7,15.54,23.63,17.08,51.58,6.7,77.61-2.81,7.04-14.76,34.76-6.28,38.38,1.91.82,6.93,2.35,9.71.32,32.89-23.94,52.92-60.08,61.91-99.99,9.03-40.09-1.97-37.67-6.18-64.11l44.62,6.06c20.76,2.82,35.87-12.94,50.43-25.2,8.44,3.27,7.65,14.16,11.24,22.19,18.8,42.04,13.68,87.45-14.41,124.56-18.47,24.4-42.93,41.96-69.81,57.69-39.02,22.83-76.51,45.05-112.91,72.08-10.69,7.94-20.17,18.69-24.84,30.06-16.02-2.7-21.76,28.94-35.18,32.2.37-31.04,14.65-59.95,34.46-82.83,2.86-3.31,2-7.98.23-10.66-8.42-12.79-84.88,38.14-84.25,55.7.03.88-.52,1.85-.73,2.7-11.27,3.36-17.73,16.27-17.18,27.71-7.64-2.49-14.59-8.41-17.33-17.39-8.58-28.14-29-49.74-57.32-58.75-4.07-1.29-5.7-4.81-7.29-6.79,12.67-39.36,18.48-78.94,14.24-121.54-1.75-17.61-4.37-33.48-14.49-47.19,2-2.65,4.67-5.33,8.84-7.26l120.54-55.83c5.99-2.77,7.97-10.59,8.13-14.9.19-5.28-3.12-9.08-7.91-12.37l-21.44-14.76c13.95-5.15,25.82,3.47,38.32,6.4Z"/><path class="i" d="M2882.46,2226.79l-52.67-26.94c-6.51-3.33-13.11-5.88-16.34-11.6,2.73-2.61.51-5.44-.36-7.46-1.4-3.25-8.34-2.85-10.23-4.75l-39.69-40.06c-.06-5.62-3.5-10.11-7.37-15.25-17.03-22.61-29.35-47.5-38.54-74.41-5.91-17.33-1.9-35.41,8.96-49.79,28.86-38.21,89.29-72.47,131.55-95.35,21.98-11.9,41.4-25.4,57.78-44.37,35.59-17.95,55.62-65.78,55.61-103.6,0-32.38-10.09-62.85-20.55-92.21,15.7-23.29,42.39-40.49,63.77-58.28.52,7.32,3.29,14.08,6.03,22.34,29.34,88.43,7.56,148.25-51.38,216.05-54.69,62.92-112.81,92.77-168.44,146.74-25.74,24.97-51.79,62.49-27.21,97.32,29.23,41.42,74.64,49.74,102.7,123.48,2.45,6.43,7.45,11.68,6.4,18.14Z"/><path class="f" d="M2763.16,2135.97c-7.87,8.64-49-65.03-53.29-72.8-11.75-21.27-3.89-60.51,7.44-66.91,6.53-3.69,5.3-8.23,7.12-12.67,4.67-11.37,14.15-22.13,24.84-30.06,36.39-27.02,73.88-49.25,112.91-72.08,26.88-15.72,51.35-33.29,69.81-57.69,28.08-37.11,33.21-82.52,14.41-124.56-3.59-8.03-2.8-18.92-11.24-22.19,4.53-3.82,7.89-14.57,15.44-16.02,10.45,29.36,20.54,59.82,20.55,92.21.01,37.82-20.02,85.65-55.61,103.6-16.37,18.97-35.79,32.46-57.78,44.37-42.26,22.89-102.68,57.14-131.55,95.35-10.86,14.38-14.88,32.46-8.96,49.79,9.19,26.91,21.51,51.81,38.54,74.41,3.87,5.14,7.31,9.63,7.37,15.25Z"/><path class="h" d="M2724.43,1983.59c-1.83,4.45-.59,8.98-7.12,12.67-11.33,6.4-19.2,45.64-7.44,66.91,4.29,7.77,45.42,81.44,53.29,72.8l39.69,40.06c1.89,1.91,8.83,1.5,10.23,4.75.87,2.02,3.09,4.85.36,7.46-18.81-4.49-32.98-18.94-49.95-27.4-1.11-5.09-5.91-8.12-10.43-11.89-26.73-22.29-49.46-47.8-63.36-79.67-24.49-56.17-6.76-82.81,20.25-134.84-27.39,3.46-52.56,31.3-70.26,43.57-.62-17.56,75.83-68.5,84.25-55.7,1.77,2.68,2.63,7.36-.23,10.66-19.8,22.88-34.09,51.79-34.46,82.83,13.42-3.26,19.16-34.9,35.18-32.2Z"/><path class="i" d="M2788.49,1683.83c5.5,9.99,18.56,6.99,28.48,11.95,30.42,15.21,15.24,105.33-20.73,129.44,9.83-25.61,12.5-44.52,1.39-66.64-6.35-12.65-10.5-28.43-23.8-33.94-2.84-8.82-11.86-15.61-19.68-21.34l-39.82-29.22c7.85-6.71,16.36,2.12,21.82-4.31l52.33,14.05Z"/><path class="h" d="M2736.16,1669.77c-5.46,6.42-13.97-2.41-21.82,4.31l39.82,29.22c7.81,5.74,16.83,12.52,19.68,21.34,1.67,5.2,2.77,9.59,6.56,15.31,33.65,50.76-6.24,99.21,4.41,105.48,12.13,7.13,35.43-36.01,41.94-47.64,18.75-33.51,17.99-70.54,2.78-104.23,2.66,1.19,8.22.2,10.59,2.59,4.21,26.44,15.21,24.02,6.18,64.11-8.99,39.91-29.02,76.05-61.91,99.99-2.78,2.02-7.79.49-9.71-.32-8.48-3.62,3.47-31.34,6.28-38.38,10.38-26.03,8.83-53.98-6.7-77.61-7.86-11.95-15.19-25.89-27.57-33.7-23.16-14.62-48.38-28.58-60.62-52.2l50.1,11.73Z"/><path class="f" d="M2539.59,1756.77c10.12,13.71,12.74,29.57,14.49,47.19,4.24,42.6-1.56,82.18-14.24,121.54-15.08-8.65-30.6-18.64-40.64-32.91,11.56,1.48,17.73,10.61,31.39,19.46,15.42-25.77,29.14-103.44,6.59-127.95-4.38,33.56-14.21,62.93-37.15,85.3-4.71,4.59-10.61,8.13-10.63,14.37-2.36-1.09-6.56-1.26-7.87-4.13,25.44-25.6,42.9-58.14,46.49-95.4,3.26-8.63,4.27-16.95,3.53-24.87,2.02-.92,5.52-2.93,8.04-2.59Z"/><path class="f" d="M2829.52,1693.56c15.21,33.69,15.97,70.71-2.78,104.23-6.51,11.64-29.81,54.78-41.94,47.64-10.65-6.27,29.24-54.72-4.41-105.48-3.8-5.73-4.89-10.12-6.56-15.31,13.3,5.5,17.45,21.29,23.8,33.94,11.11,22.12,8.44,41.03-1.39,66.64,35.97-24.11,51.15-114.23,20.73-129.44-9.92-4.96-22.98-1.96-28.48-11.95,13.39,3.6,28,3.9,41.03,9.73Z"/><path class="b" d="M2881.42,2337.73c1.47,4.35,2.53,8.77,3.39,13.26-9.97-2.03-19.93-4.47-30.11-4.95-2.11-4.38-2.13-9.49.46-13.66,4.93,6.61,19.27,6.3,26.26,5.34Z"/><path class="i" d="M3056.6,1565.69c3.77-3.51,11.66-12.34,16.06-14.84-.07,4.76.72,9.57-.61,15.55-5.93,1.47-10.66-.36-15.45-.71Z"/><path class="b" d="M3078.73,2059.08c9.83,33.36,23.51,25.17,26.82,38.27.79,3.1.52,6.81,2.49,10.69,17.92,35.28,9.98,75.6-17.28,103.7-20.26,20.89-49.74,24.52-74.64,8.18-30.09-19.74-50.88-51.14-59.1-87.07-17.19-75.16-13.72-97.52.31-173.09,25.62-35.75,30.33-70.09,60.75-102.43,1.9-2.02,4.13-2.74,6.37-2.3,1.97.38,4.22,3.37,4.09,7.39-2.12,65.41,10.79,129.21,37.6,188.54,2.6,5.76,8.07,8.1,12.6,8.12Z"/><path class="f" d="M2734.74,2507.75c-5.88,7.98-16.74,12.02-26.89,8.35,24.54-17.22,44.22-37.19,51.62-65.65,2.79,50.45-4.5,29.84-24.74,57.3Z"/><path class="e" d="M2884.8,2350.99c9.77,51.24,6.69,104.34-15.43,152.95-1.84,4.04-3.95,5.96-7.78,5.54-3.5-.38-6.72-3.66-6.72-9.08l-.18-154.36c10.18.48,20.14,2.92,30.11,4.95Z"/><path class="d" d="M1017.34,1826.26c-5.32,24-27.25,51.04-37.15,81.57-8.33,25.7-14,51.44-21.6,77.55l-26,89.44c-14.36,49.41,25.08,125.42,23.1,146.26-4.96-.62-8.37-4.22-11.68-9.01-23.8-34.41-46.23-68.56-65.7-105.7-7.61-14.52,25.49-61.98,26.12-79.02,2.32-4.42,9.44-9.31,6.57-15.79-6.66,3.26-5.97,10.64-9.08,13.95-15.21,16.12-24.94,36.5-36.38,57.41-14.12-26.6-36.2-48.02-16.1-71.22,19.51-22.53,32.34-47.89,47.28-73.93,34.69-60.49,63.25-121.29,88.57-187.72l32.05,76.22ZM915.21,2007.31c0-.76-.62-1.38-1.38-1.38s-1.38.62-1.38,1.38.62,1.38,1.38,1.38,1.38-.62,1.38-1.38Z"/><path class="b" d="M2735.92,2257.51c18.54,7.68,59.87,34.47,77.24,47.32-2.69,4.88-1.66,9.69.33,15.99,22.18,70.42,21.84,146.07-3.07,215.53-2.59,7.23-6.91,12.51-5.74,19.16-17.39,15.39-36.86,29.45-62.25,38.96,34.34-43.31,52.98-89.94,54.6-143.67l1.42-46.97c.18-6.02-1.81-10.89-7.3-12.38-3.64-.98-9.96-.06-12.49,5.02-19.63,39.38,3.25,66.87-25.61,106.73-18.36,25.36-45.93,23.67-72.04,32.2-49.69,16.24-93.95,45.24-142.15,65.35-20.84,8.69-33.06,28.1-43.54,29.68.42-2.33,1.11-5.17,3.42-7.7,40.57-44.43,73.01-56.61,119.38-90.77,14.26-10.51,29.77-16.59,47.71-17.5,15.51-12.57,32.1-20.96,45.22-33.67,2.54-2.46,7.41-6.3,10.55-7.97,13.39-6.31,18.18-22.75,12.07-35.87l-.38-8.07c-1.09-23.3,5.26-48.94,2.23-74.83-3.7-31.54-11.13-61.24-17.57-92.14-1.05-5.03-.39-9.32,1.7-12.76.69-.06,1.49.37,2.15.21,1.87,6.23,9.06,6.06,14.12,8.15ZM2734.74,2507.75c20.24-27.47,27.53-6.85,24.74-57.3-7.41,28.46-27.08,48.43-51.62,65.65,10.15,3.67,21.01-.36,26.89-8.35Z"/><path class="h" d="M2578.64,2397.87c5.39,13.69,15.22,27.28,29.86,33.45l18.9-10.89,23.9,42.92c2.81,5.05,9.27,7.17,10.08,12.57-.87,7.41-4.58,14.9-1.26,23.76,10.77,3.31,21.86-5.17,23.96-15.17,8.96,1.65,17.99-6.3,26.97-3.72-13.12,12.71-29.71,21.1-45.22,33.67-17.94.9-33.45,6.99-47.71,17.5-46.37,34.17-78.81,46.34-119.38,90.77-2.31,2.53-3,5.37-3.42,7.7-3,.45-4.97,4.62-7.78,5.29-7.4,1.79-12.81,8.76-22.97,9-2.48-11.97,2.56-21.6,3.5-33.73,1.6-20.57-3.36-46.04-24.12-55.91-9.18-4.36-23.69,12.48-22.32,21.99,7.44,51.8-1.84,63.77-6.38,108.22-2.8.21-5.84-.63-8.61-.2,7.49-37.38,10.74-74.78,7.66-112.86,8.18-12.4,21.62-22.71,34.49-30.33,7.19,3.66,11.75,29.47,25.43,26.85,6.24-1.19,26.9-23.19,19.68-35.82-5.16-9.03-15.59-14.07-17.95-23.64,9.6-11.83,16.99-28.49,32.61-33.23-3.9,8.31,17.53,29.94,24.94,33.07,26.53,11.21,55.57-4.78,62.1-33.01,5.9-25.51-8.11-65.01-28.77-69.4,3.87-2.6,4.79-8.93,11.83-8.85Z"/><path class="l" d="M2111.26,2676.58c-20.71,15.47-46.98,9.52-79.05,7.93l162.67-97.13c8.52-5.09,68.48-43.64,71.03-30.03.31,1.67-.99,4.46-3.35,6.22l-151.3,113.02Z"/><path class="i" d="M2376.25,2685.44l-33.01.17c14.2-29.2,35.44-40.3,30.95-80.03,10.79-9.34,20.75-20,33.09-27.33,3.7,11.51,2.38,23.95-3.2,35.7l-22.28,46.85c-3.9,8.21-6.8,16.5-5.55,24.63Z"/><path class="l" d="M2051.77,2637.54c-26.11,20.66-64.25,59.95-93.85,48.83l90.24-58.88c1.7-1.11,4.57.58,4.73,1.72.24,1.72,1.28,6.45-1.12,8.34Z"/><path class="f" d="M2343.24,2685.62c-3.57.02-7.41-.18-10.98-.15.91-5.23,5.1-8.74,9.08-13.56,39.95-48.42,17.86-53.34,32.85-66.32,4.49,39.73-16.74,50.83-30.95,80.03Z"/><path class="m" d="M904.43,2027.34c-.69-.8-1.54-1.43-2.52-1.84,3.12-3.31,2.42-10.68,9.08-13.95,2.87,6.48-4.25,11.37-6.57,15.79Z"/><path class="e" d="M1955.37,2421.01c61.83-23.28,117.61-56,181.72-81.92,3.19-1.29,8.99-1.12,10.16,1.36-1.78,7.94-9.4,14.29-15.94,19.74-39.33,32.78-82.32,56.13-124.69,85.19-68.22,46.8-135.62,91.65-211.34,124.85-18.52,8.12-36.5-4.52-40.13-22.39-3.96-19.5-4.4-38.73.78-58.19,9.46-35.47,14.04-70.76,20.74-106.67,3.58-19.21,5.23-35.97-4.17-54.22l-63.83-124.01-156.82-296.14c-22.46-42.42-47.69-79.62-75.12-118.42-52.95-74.89-91.11-133.88-185.78-160.59-30.23-8.53-59.17-10.52-90.5-4.7,1.46-12.76,10.71-23.94,22.8-27.3,49.28-13.69,102.83-10.02,148.53,14.99,66.45,36.36,121.62,84.57,171.17,141.45,65.79,75.55,124.63,154.04,176.61,240.03l174.68,288.97c5.78,9.57,13.98,13.58,25.06,11.76,58.6-9.65,106.88-28.47,164.79-31.25-5.86,6.74-14.19,7.11-22.76,9.62-45.39,13.29-90.01,26.44-133.98,43.31-7.13,2.74-6.76,13.45-5.19,17.84,1.84,5.15,4.41,15.24,12.46,14.49,12.16-1.13,23.62-5.36,35.1-9.59l156.96-57.8c7.51-2.77,17.44-3.93,23.52.42,4.14,2.96,2.65,9.79,1.2,13.93s-7.09,5.01-12.75,7.4l-184.42,77.88c-9.09,3.84-16.9,11.16-19.32,20.16-1.58,5.87.35,11.1,2.97,14.57,2.69,3.56,9.81,8.1,17.48,5.21ZM1909.03,2384.35c0-31.23-25.31-56.54-56.53-56.54s-56.53,25.31-56.53,56.54,25.31,56.54,56.53,56.54,56.53-25.31,56.53-56.54Z"/><path class="e" d="M2131.8,2041.57l-114.16-74.34-188.29-113.66-322.61-198.64c-10.84-6.67-46.09-28.96-47.46-37.1-.27-1.59,1.39-4.61,4.16-5.52,22.27-7.32,39.13-21.11,57.09-38.45,20.03,30.99,43.26,55.29,73.34,74.4l133.63,84.9,387.09,250.32c25.12,16.24,60.77,28.55,43.37,51.67-4.36,5.79-16.61,12.66-26.16,6.44ZM1873.76,1861.86c-10.75-18.84-28.7-31.66-48.61-33.99-13.64-1.6,15.64,38.02,48.61,33.99Z"/><path class="m" d="M2230.17,1909.72c-8.32,10.5-16.49,1.33-23.04-2.79l-99.78-62.88c-51.46-32.43-104.11-57.81-156.54-89.69l-224.65-136.58c-7.71-4.69,10.72-31.08,18.13-33.5,17.38-5.68,57.12,33.91,74.73,48.46,102.94,85.01,250.48,146.44,354.55,231l56.6,45.99Z"/><path class="m" d="M1621.68,1529.13c-4.06,14.61-12.86,25.75-18.21,38.34-3.14,7.39-11.69,10.26-18.36,5.5l-35.33-25.21c-20.11-14.35-50.63,7.36-66.16,21.05-11.8,10.41-27.88,15.42-43.65,8.25-56.35-25.63-110.32-53.66-164.81-83.28-13.63-7.41-25.39-19.59-27.06-36.23,54.02,13.67,100.69,36.51,145.78,64.19,13.93,8.55,31.69,7.03,46.45,12.04,25.08,8.51,68.32,5.7,72.71-22.38.6-3.83,5.29-7.4,9.73-5.12l55.46,28.44c7.49-5.54,8.16-14.71,13.7-20.66,5.09-5.46,12.43-4.86,18.2-2.49s14.3,7.7,11.56,17.56Z"/><path class="h" d="M2636.37,2198.79c4.32,7.31,13.51,9.52,19.34,16.89,6.93,8.77,35.62,48.08,43.96,40.08,3.5-3.36-.43-14.83,8.79-15.2,3.97,2.62,9.24,3.74,11.18,8.59-2.08,3.44-2.75,7.72-1.7,12.76,6.44,30.9,13.87,60.6,17.57,92.14,3.03,25.89-3.32,51.54-2.23,74.83-7.18-28.02-2.18-29.85-21.03-59.44-10.61-16.66-63.58-71.27-66.88-73.58l-16.77-55.56c-4-13.27-9.23-25.22-11.34-37.85,3.51-2.72,3.06-8.77,9.53-9.02,5.06-.19,6.22,3.78,9.55,5.37Z"/><path class="m" d="M1497.08,1487.64c-8.18,4.24-21.72.43-30.21-4.03l-149.92-78.75c-41.97-22.04-50.41-8.28-80.94-29.4-18.03-12.47,10.91-35.23,20.81-50.18,8.94-2.88,19.2-.48,25.23,6.79,6.44,7.76-8.03,13.82-7.8,23.27.09,3.8,2.87,8.47,7.67,11.02,61.59,32.87,120.66,67.48,180.46,103.69,2.13,1.29,53.09,8.04,34.7,17.58Z"/><path class="b" d="M2508.54,2476.07c6.24-13.75,19.36-23.07,29-35.47,9.75-12.53,16.85-25.52,29.27-33.87,20.66,4.39,34.67,43.9,28.77,69.4-6.53,28.24-35.57,44.22-62.1,33.01-7.41-3.13-28.84-24.76-24.94-33.07Z"/><path class="m" d="M1573.67,1487.77c-6.97,17.19-47.46-12.6-53.24-16l-169.26-99.49c-2.45-2.68-1.41-10.42.1-12.59,7.16-10.22,39.11,11.75,47.36,16.99l175.04,111.09Z"/><path class="i" d="M2763.49,2160.84l-56.86-28.36c-33.43-16.67-2.61-55.78-38.06-95.06-11.73-13-26.65-20.13-40.44-28.48-.31-16.07,8.03-16.46,10.84-28.25.2-.86.76-1.83.73-2.7,17.7-12.27,42.87-40.1,70.26-43.57-27.01,52.04-44.75,78.67-20.25,134.84,13.9,31.88,36.63,57.38,63.36,79.67,4.51,3.77,9.32,6.8,10.43,11.89Z"/><path class="i" d="M2499.2,1892.58c-4.54-.58-6.83-6.4-9.8-8.83.03-6.24,5.93-9.78,10.63-14.37,22.94-22.37,32.77-51.74,37.15-85.3,22.55,24.52,8.84,102.18-6.59,127.95-13.66-8.85-19.83-17.98-31.39-19.46Z"/><path class="m" d="M1206.76,1354.88c-13.17-2.94-38.43-15.43-33.52-28.71,2.98-8.07,19.79,2.3,29.43-20.01,7.11-16.47,11.85-33.17,25.53-48.19,8.3,10.51,12.55,23.97,12.89,37.2-18.01,15.86-31.34,33.37-34.32,59.71Z"/><path class="m" d="M1184.74,1376.77c-.48,14.13-14.2,29.45-28.64,26.66-32.93-6.36-29.44-52.71-23.77-57.36,8.73-7.15,40.27,22.14,52.41,30.7Z"/><path class="f" d="M2448.78,2541.9c3.45-14.75,18.32-21.73,27.16-32.6,2.36,9.57,12.79,14.61,17.95,23.64,7.22,12.63-13.44,34.62-19.68,35.82-13.68,2.62-18.23-23.19-25.43-26.85Z"/><path class="f" d="M2645.39,2295.86l-11.24-7.84c-1.1-12.15-4.75-29.87-17.04-36.22-6.05-3.12-10.8,8.61-13.84,10.82-10.05-2.14-.73-48.73,14.02-60.17,2.11,12.63,7.33,24.59,11.34,37.85l16.77,55.56Z"/><path class="f" d="M2627.4,2420.43l-18.9,10.89c-14.65-6.17-24.47-19.75-29.86-33.45,3.26-2.37,4.67-10.5,10.27-10.98,15.29-1.32,31.72,21.39,38.49,33.55Z"/><path class="f" d="M2708.47,2240.56c-9.22.37-5.3,11.84-8.79,15.2-8.34,8-37.03-31.31-43.96-40.08-5.83-7.37-15.02-9.58-19.34-16.89,24.98,11.94,49,26.52,72.1,41.77Z"/><path class="m" d="M1661.24,2536.97c4.67,10.62-3.8,26.96-13.71,23.87l-10.49-46.53c-.8-3.55-.55-6.82,1.11-7.28,11.17-3.1,12.45,5.76,23.09,29.95Z"/><path class="m" d="M1140.17,1307.93c-1.74,11.04-22.52,9.21-28.83,4.72-4.75-3.38-4.04-11.61-2.23-15.32,1.87-3.85,6.88-12.31,13.15-10.57,6.47,1.8,19.34,12.12,17.91,21.18Z"/><path class="i" d="M2634.15,2288.02c-14.69-.04-27.25-11.32-30.88-25.4,3.04-2.21,7.79-13.94,13.84-10.82,12.29,6.35,15.94,24.07,17.04,36.22Z"/><path class="i" d="M2684.09,2484.51c-2.1,10-13.19,18.48-23.96,15.17-3.32-8.86.39-16.35,1.26-23.76,8.27,0,15.01,7.17,22.7,8.59Z"/><path class="h" d="M2638.97,1980.71c-2.81,11.78-11.15,12.18-10.84,28.25-1.63-.99-4.5.07-6.34-.54-.55-11.44,5.91-24.35,17.18-27.71Z"/><path class="h" d="M2721.61,2472.82c14.28-16.56,4.18-26.42,12.07-35.87,6.12,13.12,1.32,29.56-12.07,35.87Z"/><path class="h" d="M2735.92,2257.51c-5.06-2.1-12.24-1.92-14.12-8.15,6.35-1.55,10.54,3.45,14.12,8.15Z"/><circle class="m" cx="913.83" cy="2007.31" r="1.38"/><ellipse class="c" cx="1852.49" cy="2384.35" rx="56.53" ry="56.54"/><path class="l" d="M1873.76,1861.86c-32.98,4.03-62.26-35.59-48.61-33.99,19.91,2.33,37.87,15.15,48.61,33.99Z"/></svg>